<?xml version="1.0" standalone="no"?>
<!DOCTYPE svg PUBLIC "-//W3C//DTD SVG 20010904//EN"
 "http://www.w3.org/TR/2001/REC-SVG-20010904/DTD/svg10.dtd">
<svg version="1.0" xmlns="http://www.w3.org/2000/svg"
 width="1280.000000pt" height="1258.000000pt" viewBox="0 0 1280.000000 1258.000000"
 preserveAspectRatio="xMidYMid meet">
<metadata>
Created by potrace 1.15, written by Peter Selinger 2001-2017
</metadata>
<g transform="translate(0.000000,1258.000000) scale(0.100000,-0.100000)"
fill="#f44336" stroke="none">
<path d="M6007 12573 c-4 -4 -96 -6 -205 -5 -169 2 -205 -1 -249 -17 -29 -10
-53 -14 -53 -10 0 4 3 9 8 12 4 2 0 2 -8 -1 -63 -20 -116 -31 -176 -35 -82 -7
-462 -74 -661 -119 -136 -30 -167 -44 -123 -55 11 -3 17 -10 14 -15 -4 -6 -31
-7 -69 -3 -50 5 -65 3 -78 -10 -18 -18 -341 -130 -402 -140 -77 -12 -87 -16
-82 -29 4 -9 -6 -18 -26 -26 -18 -6 -39 -16 -47 -21 -46 -28 -130 -48 -130
-31 0 6 9 14 21 17 11 4 18 9 15 12 -7 8 -216 -96 -216 -107 0 -5 -75 -50
-167 -101 -93 -50 -202 -112 -243 -137 -178 -107 -414 -277 -405 -292 5 -9
-87 -82 -170 -135 -105 -66 -137 -95 -124 -111 16 -20 4 -29 -12 -10 -12 13
-23 5 -86 -57 -40 -39 -78 -72 -85 -73 -74 -14 -139 -73 -195 -178 -21 -38
-47 -73 -60 -79 -22 -10 -32 -27 -15 -27 4 0 24 -4 45 -9 31 -8 37 -7 33 5 -6
15 9 19 19 5 3 -5 20 -9 38 -9 26 1 49 17 120 81 59 55 83 83 75 88 -9 6 -6
16 13 36 32 34 29 57 -6 41 -16 -7 -28 -7 -41 1 -17 9 -15 10 14 11 17 0 32 5
32 11 0 10 66 5 112 -7 13 -4 16 -1 12 10 -3 9 -2 16 4 16 6 0 12 -5 14 -10 2
-6 26 5 53 23 28 19 66 42 85 53 60 32 62 35 43 50 -16 12 -15 13 14 14 18 0
32 3 32 8 -4 22 3 34 16 28 9 -3 25 2 37 12 74 60 87 74 81 89 -5 13 -1 15 28
9 32 -6 43 0 115 53 100 74 222 144 464 266 149 75 189 99 180 109 -17 21 7
33 95 46 71 11 84 17 120 51 23 22 46 39 52 39 6 0 19 7 28 16 18 18 485 186
721 259 346 108 607 159 877 172 76 3 140 10 143 15 3 4 13 8 23 8 10 0 21 9
24 21 5 19 10 20 117 13 70 -4 136 -3 178 4 37 7 108 15 157 19 50 4 78 9 63
11 -18 2 -25 8 -22 17 4 9 -18 26 -68 51 -40 20 -80 42 -89 50 -9 8 -19 11
-22 7z m-3267 -1167 c0 -3 -4 -8 -10 -11 -5 -3 -10 -1 -10 4 0 6 5 11 10 11 6
0 10 -2 10 -4z m-54 -117 c29 -31 29 -31 4 -24 -28 8 -60 33 -60 47 0 18 28 6
56 -23z m-79 5 c-3 -3 -12 -4 -19 -1 -8 3 -5 6 6 6 11 1 17 -2 13 -5z m43 -64
c0 -4 -6 -10 -14 -13 -10 -4 -14 0 -13 12 1 18 27 18 27 1z m-170 -130 c0 -5
-5 -10 -11 -10 -5 0 -7 5 -4 10 3 6 8 10 11 10 2 0 4 -4 4 -10z"/>
<path d="M6300 12421 c0 -19 20 -22 42 -7 22 16 22 16 -10 16 -17 0 -32 -4
-32 -9z"/>
<path d="M6148 12383 c6 -2 18 -2 25 0 6 3 1 5 -13 5 -14 0 -19 -2 -12 -5z"/>
<path d="M6370 12380 c0 -5 7 -10 15 -10 8 0 15 5 15 10 0 6 -7 10 -15 10 -8
0 -15 -4 -15 -10z"/>
<path d="M7302 12372 c-16 -11 42 -22 103 -21 l40 1 -35 8 c-19 4 -48 11 -65
14 -16 4 -36 3 -43 -2z"/>
<path d="M7675 12340 c27 -12 43 -12 25 0 -8 5 -22 9 -30 9 -10 0 -8 -3 5 -9z"/>
<path d="M4498 12333 c7 -3 16 -2 19 1 4 3 -2 6 -13 5 -11 0 -14 -3 -6 -6z"/>
<path d="M7565 12332 c31 -14 103 -25 84 -13 -9 6 -36 13 -60 16 -30 4 -38 3
-24 -3z"/>
<path d="M7990 12180 c0 -5 21 -15 47 -24 46 -16 46 -16 27 2 -21 20 -74 35
-74 22z"/>
<path d="M7948 12153 c6 -2 18 -2 25 0 6 3 1 5 -13 5 -14 0 -19 -2 -12 -5z"/>
<path d="M8185 12070 c3 -5 13 -10 21 -10 8 0 12 5 9 10 -3 6 -13 10 -21 10
-8 0 -12 -4 -9 -10z"/>
<path d="M8594 12018 c-3 -5 11 -8 31 -8 21 0 34 4 30 10 -7 11 -54 9 -61 -2z"/>
<path d="M8820 11961 c19 -16 37 -28 38 -26 9 9 -35 54 -53 55 -16 0 -13 -5
15 -29z"/>
<path d="M6085 11950 c2 -19 4 -35 5 -35 1 0 3 -22 4 -49 1 -41 -2 -50 -20
-59 -19 -8 -21 -13 -11 -28 9 -15 8 -25 -6 -48 -13 -23 -16 -38 -9 -63 6 -24
4 -40 -7 -60 -9 -16 -19 -28 -23 -28 -5 0 -8 -7 -8 -16 0 -15 -12 -16 -102 -9
-119 8 -358 14 -358 9 0 -2 19 -14 41 -26 72 -40 84 -48 74 -48 -5 -1 1 -6 14
-11 16 -6 21 -14 17 -25 -4 -11 -2 -15 8 -11 8 3 20 -1 27 -9 16 -19 80 -50
122 -60 54 -11 76 -34 70 -71 -6 -33 -5 -33 33 -33 l39 1 -29 16 c-26 13 -27
17 -12 25 21 12 78 0 73 -15 -2 -7 8 -20 22 -29 26 -18 24 -18 -60 -13 -92 4
-92 5 -103 -50 -1 -5 -14 -36 -29 -68 -15 -32 -33 -76 -40 -98 -6 -21 -17 -39
-23 -39 -12 0 -26 -24 -21 -36 1 -3 -14 -14 -33 -25 -35 -18 -35 -18 -7 -19
29 0 34 -9 15 -28 -8 -8 -8 -12 -1 -12 6 0 8 -12 5 -27 l-5 -28 23 28 c12 15
35 34 51 42 16 9 32 27 35 41 4 14 19 34 35 43 15 10 38 29 49 44 12 15 27 27
35 27 7 0 25 17 41 37 15 20 30 31 32 25 2 -8 15 -6 42 8 43 22 55 36 41 44
-5 4 -12 2 -16 -4 -3 -5 -16 -15 -28 -22 -20 -10 -21 -10 -8 6 33 40 52 40 86
2 17 -20 39 -36 47 -36 9 0 30 -17 47 -37 44 -53 41 -50 94 -98 35 -31 49 -52
52 -76 6 -45 20 -57 47 -40 14 9 23 10 25 4 2 -6 22 -30 45 -54 23 -26 37 -36
33 -24 -4 11 -13 47 -20 81 -13 64 -42 134 -55 134 -4 0 -21 37 -36 82 -20 56
-34 83 -47 86 -12 3 -14 7 -8 12 8 4 7 20 -3 53 -10 34 -11 47 -2 50 8 3 7 10
-2 26 -14 24 -8 41 14 41 8 0 13 -4 10 -9 -3 -5 1 -11 8 -14 19 -8 38 16 30
37 -4 10 0 18 10 22 26 10 18 24 -13 24 -17 0 -33 4 -36 10 -3 5 -20 13 -38
18 -31 8 -32 9 -10 20 23 13 47 5 79 -24 7 -6 32 -10 56 -9 34 2 61 14 128 60
47 32 108 68 135 80 l50 23 -230 -4 c-126 -2 -250 -6 -275 -8 l-46 -5 -22 49
c-12 26 -24 62 -26 80 -2 17 -13 41 -25 54 -12 13 -19 29 -16 37 3 8 -1 33 -9
55 -10 28 -11 46 -4 58 11 20 -3 36 -33 36 -9 0 -21 10 -27 23 -10 20 -10 18
-7 -13z m65 -150 c0 -5 -5 -10 -11 -10 -5 0 -7 5 -4 10 3 6 8 10 11 10 2 0 4
-4 4 -10z m-25 -230 c-3 -5 -11 -10 -16 -10 -6 0 -7 5 -4 10 3 6 11 10 16 10
6 0 7 -4 4 -10z m110 -90 c3 -5 -1 -10 -10 -10 -9 0 -13 5 -10 10 3 6 8 10 10
10 2 0 7 -4 10 -10z m-485 -10 c0 -5 -5 -10 -11 -10 -5 0 -7 5 -4 10 3 6 8 10
11 10 2 0 4 -4 4 -10z m350 -5 c0 -8 -6 -15 -14 -15 -8 0 -16 7 -20 15 -4 10
1 15 14 15 11 0 20 -7 20 -15z m220 -15 c11 -7 2 -10 -33 -10 -30 0 -46 4 -42
10 8 13 55 13 75 0z m-404 -31 c3 -5 -9 -9 -25 -9 -17 0 -31 4 -31 9 0 5 11 9
25 9 14 0 28 -4 31 -9z m459 -19 c18 -8 17 -9 -7 -9 -16 -1 -28 4 -28 9 0 12
8 12 35 0z m-210 -60 c3 -5 1 -10 -4 -10 -6 0 -11 -4 -11 -10 0 -5 7 -10 15
-10 19 0 19 -14 1 -29 -13 -11 -76 -5 -76 7 0 8 53 59 62 61 4 1 10 -3 13 -9z
m-92 -47 c-7 -2 -19 -2 -25 0 -7 3 -2 5 12 5 14 0 19 -2 13 -5z"/>
<path d="M8655 11922 c17 -10 32 -16 35 -12 3 4 12 10 20 13 9 3 4 5 -10 5
-14 -1 -36 2 -50 6 -22 7 -22 6 5 -12z"/>
<path d="M8790 11920 c0 -9 39 -25 46 -18 2 3 -7 10 -21 16 -14 6 -25 7 -25 2z"/>
<path d="M8930 11820 c0 -5 9 -14 20 -20 16 -8 18 -8 14 4 -6 17 -34 30 -34
16z"/>
<path d="M9230 11755 c14 -8 36 -14 50 -14 23 0 22 1 -9 14 -44 20 -75 19 -41
0z"/>
<path d="M9320 11625 c0 -5 89 -45 99 -45 3 0 -12 12 -34 25 -37 23 -65 32
-65 20z"/>
<path d="M9240 11595 c0 -6 67 -34 99 -41 19 -4 14 1 -18 20 -38 23 -81 34
-81 21z"/>
<path d="M9555 11541 c3 -5 -2 -17 -11 -25 -8 -9 -12 -16 -7 -17 4 0 34 -2 66
-5 68 -6 74 7 17 36 -41 21 -75 27 -65 11z"/>
<path d="M9760 11511 c0 -5 7 -11 15 -15 8 -3 15 -1 15 3 0 5 -7 11 -15 15 -8
3 -15 1 -15 -3z"/>
<path d="M9584 11475 c11 -8 25 -15 30 -15 6 0 2 7 -8 15 -11 8 -25 15 -30 15
-6 0 -2 -7 8 -15z"/>
<path d="M8506 11452 c-3 -5 -20 -13 -38 -17 -23 -5 -27 -9 -15 -12 9 -2 18
-14 18 -26 1 -17 2 -18 6 -4 7 27 31 21 26 -7 -4 -22 -9 -24 -39 -19 -22 4
-34 2 -34 -6 0 -6 4 -11 8 -11 4 0 8 -9 9 -20 1 -11 -2 -20 -8 -20 -5 0 -9 -4
-9 -10 0 -14 28 -12 33 3 2 6 8 9 12 5 13 -13 -6 -28 -36 -28 -31 0 -33 -3
-19 -35 8 -20 9 -20 9 0 1 17 2 18 17 4 12 -13 13 -23 6 -50 -6 -19 -11 -26
-11 -15 -1 15 -4 16 -16 6 -8 -7 -15 -21 -15 -31 0 -25 -30 -39 -81 -39 -40 0
-41 1 -23 15 18 13 18 14 1 15 -10 0 -25 -7 -33 -15 -15 -15 -89 -22 -81 -7 3
4 -11 8 -31 9 -21 1 -97 4 -171 8 -145 8 -160 1 -68 -33 102 -39 206 -102 167
-102 -7 0 -3 -9 9 -19 13 -11 20 -25 16 -30 -9 -15 8 -14 23 1 16 16 16 -2 -3
-72 -18 -69 -12 -77 10 -11 9 28 20 53 24 55 15 10 87 -23 105 -48 20 -26 20
-26 -2 -79 -12 -29 -22 -58 -22 -65 0 -7 -4 -11 -9 -8 -12 8 -21 -18 -14 -43
4 -14 -2 -27 -18 -40 -18 -14 -21 -22 -12 -32 12 -16 -1 -64 -15 -55 -28 17
-51 -35 -93 -209 -5 -22 -12 -49 -16 -60 -3 -12 18 2 57 39 48 46 64 56 71 45
6 -10 9 -7 9 13 0 37 101 138 139 139 l26 0 -24 10 c-19 7 -22 12 -13 21 9 9
15 9 24 0 9 -9 19 -5 44 19 18 17 30 38 27 45 -3 9 2 14 15 14 12 0 24 5 28
12 5 7 3 8 -5 3 -9 -5 -9 -1 1 14 15 25 26 26 56 5 13 -9 29 -14 36 -11 7 3
46 -28 86 -69 41 -41 78 -74 82 -74 5 0 13 -12 18 -26 7 -19 6 -33 -6 -57 -17
-32 -16 -32 3 -14 11 9 24 17 30 17 6 0 13 4 15 10 7 20 29 -8 30 -38 1 -17 5
-29 9 -26 4 2 52 -27 106 -65 91 -64 121 -79 95 -49 -17 22 -139 271 -152 313
-11 36 -53 134 -82 192 -9 17 -7 28 5 47 9 14 13 27 8 31 -5 3 -12 -1 -14 -7
-3 -7 -6 -3 -6 8 -1 14 7 24 19 27 11 3 20 12 20 19 0 21 74 77 160 121 72 37
103 57 87 57 -5 0 -21 -7 -37 -15 -17 -9 -30 -12 -30 -7 0 4 26 21 58 37 47
24 53 30 34 33 -22 3 -23 4 -5 17 17 13 16 14 -12 16 -16 1 -34 1 -39 0 -5 -1
-102 -5 -216 -8 l-208 -6 -7 24 c-3 13 -10 33 -15 44 -4 11 -18 58 -31 103
-19 71 -20 85 -8 93 11 7 11 9 -3 9 -9 0 -23 9 -31 21 -8 11 -18 16 -21 11z
m482 -319 c-10 -2 -26 -2 -35 0 -10 3 -2 5 17 5 19 0 27 -2 18 -5z m-278 -13
c0 -5 -10 -10 -22 -10 -19 0 -20 2 -8 10 19 13 30 13 30 0z m137 4 c-3 -3 -22
-6 -42 -6 -20 0 -39 3 -42 6 -4 3 15 6 42 6 27 0 46 -3 42 -6z m-543 -370
c-14 -38 -30 -73 -35 -79 -6 -5 -1 15 11 45 12 30 26 68 32 83 6 15 12 26 14
24 2 -2 -7 -35 -22 -73z m226 -54 c0 -5 -5 -10 -11 -10 -5 0 -7 5 -4 10 3 6 8
10 11 10 2 0 4 -4 4 -10z m311 -81 c11 -30 15 -49 8 -42 -7 7 -18 27 -24 45
-7 18 -16 42 -20 53 -6 15 -5 17 4 9 6 -6 21 -35 32 -65z m-551 -103 c0 -3 -4
-8 -10 -11 -5 -3 -10 -1 -10 4 0 6 5 11 10 11 6 0 10 -2 10 -4z"/>
<path d="M9640 11446 c0 -3 9 -10 20 -16 11 -6 20 -8 20 -6 0 3 -9 10 -20 16
-11 6 -20 8 -20 6z"/>
<path d="M3793 11407 c-34 -10 -45 -27 -17 -27 10 0 14 -6 10 -15 -3 -8 -1
-15 4 -15 6 0 10 7 10 15 0 8 5 15 10 15 12 0 13 -20 2 -36 -4 -6 -20 -10 -36
-10 -17 1 -31 -5 -34 -13 -3 -8 0 -11 6 -8 5 4 12 -2 15 -13 3 -11 1 -20 -5
-20 -6 0 -8 -7 -4 -15 3 -8 0 -14 -6 -12 -7 1 -14 -6 -16 -15 -2 -11 2 -18 11
-18 27 0 35 -23 21 -60 -7 -21 -13 -27 -13 -16 -1 15 -4 16 -16 6 -8 -7 -15
-21 -15 -31 0 -18 -7 -21 -77 -33 -34 -6 -56 9 -26 17 10 2 7 2 -7 0 -66 -12
-115 -14 -100 -4 19 14 9 14 -26 1 -17 -7 -30 -7 -33 -1 -9 13 -271 26 -271
13 0 -12 191 -95 210 -90 11 2 15 -6 13 -29 -1 -24 3 -34 17 -38 13 -4 17 -12
13 -22 -5 -12 -2 -15 10 -10 20 8 22 -10 6 -66 -16 -58 -3 -56 16 3 14 41 20
50 34 45 9 -4 25 -10 36 -12 11 -3 34 -19 51 -35 19 -17 37 -26 46 -23 9 4 19
2 22 -4 3 -5 -7 -12 -23 -16 -21 -4 -33 -15 -40 -36 -9 -26 -8 -29 10 -29 16
0 18 5 13 24 -5 21 -2 25 14 23 17 -1 18 -5 11 -24 -5 -13 -6 -23 -3 -23 2 0
-1 -6 -8 -14 -9 -9 -19 -11 -30 -5 -22 12 -41 12 -34 0 4 -5 2 -20 -3 -33 -6
-13 -10 -16 -11 -8 0 13 -1 13 -10 0 -13 -20 -13 -33 0 -25 15 9 0 -27 -22
-51 -18 -20 -18 -21 7 -48 31 -34 31 -35 -2 -32 -30 4 -56 -11 -47 -25 3 -5
-1 -9 -9 -9 -8 0 -18 -12 -21 -27 -4 -16 -9 -36 -12 -45 -4 -14 0 -18 19 -18
30 0 40 -10 26 -26 -7 -9 -6 -15 3 -20 26 -16 38 -12 54 21 8 18 24 41 34 50
10 9 16 24 13 36 -3 11 0 19 7 19 7 0 10 -7 6 -15 -8 -21 8 -19 29 5 10 11 25
20 34 21 9 1 -7 9 -36 18 -29 9 -55 20 -60 24 -10 11 40 1 66 -12 14 -8 22 -8
26 -1 5 8 11 7 21 -1 12 -10 20 -7 44 16 17 16 29 36 28 44 -2 10 6 17 19 19
14 2 20 8 16 17 -3 9 4 18 20 24 42 16 39 28 -8 33 -51 6 -112 40 -82 46 9 2
15 8 12 13 -10 16 130 -6 153 -24 7 -5 33 -11 57 -11 25 -1 45 -5 45 -10 0 -4
15 -5 34 -2 20 4 37 2 41 -4 3 -5 -3 -10 -14 -10 -12 0 -21 -5 -21 -11 0 -6
-7 -8 -16 -5 -39 15 -67 19 -60 8 9 -15 108 -44 115 -34 3 4 17 12 31 18 19 9
30 8 48 -4 26 -17 25 -13 -13 67 -21 43 -23 81 -4 81 5 0 9 7 9 16 0 8 -4 13
-9 9 -5 -3 -12 -1 -16 5 -3 5 6 15 20 20 17 6 25 16 22 24 -3 8 5 19 19 26 13
8 23 21 22 29 -2 9 4 16 12 17 18 1 50 12 70 25 8 5 38 20 66 33 28 13 55 29
58 35 10 16 -6 14 -32 -5 -12 -8 -27 -14 -33 -12 -5 2 15 17 46 33 30 17 55
34 55 39 0 4 -7 6 -15 2 -8 -3 -15 -1 -15 4 0 6 6 10 13 11 6 0 3 4 -8 8 -11
5 -71 6 -134 3 -100 -4 -114 -7 -118 -23 -6 -21 -57 -27 -68 -9 -4 6 5 10 21
10 15 0 24 3 20 8 -4 4 -49 7 -99 7 -91 0 -92 0 -95 25 -2 14 -7 30 -11 35 -4
6 -21 58 -37 117 -16 58 -36 110 -44 115 -9 6 -28 5 -47 0z m0 -127 c-3 -11
-9 -20 -13 -20 -5 0 -6 9 -3 20 3 11 9 20 13 20 5 0 6 -9 3 -20z m515 -185
c-2 -1 -15 -5 -30 -9 -20 -4 -28 -3 -28 7 0 9 9 12 30 9 17 -2 30 -5 28 -7z
m-978 -15 c0 -14 -15 -19 -29 -10 -17 10 -5 31 14 23 8 -3 15 -9 15 -13z m695
10 c3 -6 -4 -10 -17 -10 -18 0 -20 2 -8 10 19 12 18 12 25 0z m15 -60 c13 -9
13 -10 0 -9 -8 0 -24 4 -35 9 l-20 9 20 0 c11 0 27 -4 35 -9z m-461 -16 c3 -3
-1 -9 -9 -14 -10 -6 -17 -5 -22 4 -4 8 -18 11 -33 8 -16 -3 -25 0 -25 8 0 9
12 11 42 6 23 -4 45 -9 47 -12z m281 -4 c0 -5 -7 -10 -16 -10 -8 0 -12 5 -9
10 3 6 10 10 16 10 5 0 9 -4 9 -10z m-47 -7 c-7 -2 -19 -2 -25 0 -7 3 -2 5 12
5 14 0 19 -2 13 -5z m121 -2 c7 -11 -14 -20 -31 -13 -7 2 -13 8 -13 13 0 12
37 12 44 0z m231 -81 c3 -5 1 -10 -4 -10 -6 0 -11 5 -11 10 0 6 2 10 4 10 3 0
8 -4 11 -10z m-557 -23 c17 -13 15 -38 -3 -31 -8 4 -12 10 -9 15 3 5 -1 9 -9
9 -8 0 -17 7 -20 14 -6 16 16 12 41 -7z m343 -7 c5 0 9 -5 9 -11 0 -5 -5 -7
-12 -3 -7 5 -26 7 -43 6 -25 -1 -27 0 -10 8 11 5 26 7 33 4 8 -2 18 -4 23 -4z
m59 -19 c0 -5 -9 -7 -20 -4 -11 3 -20 7 -20 9 0 2 9 4 20 4 11 0 20 -4 20 -9z
m-165 -41 c4 -6 -7 -10 -27 -9 -27 0 -30 2 -13 9 27 12 33 12 40 0z m-118 -22
c-9 -5 -14 -15 -11 -23 4 -8 1 -15 -5 -15 -6 0 -11 7 -11 15 0 8 -7 15 -15 15
-26 0 -16 19 13 22 35 5 49 -2 29 -14z m-128 -142 c-6 -21 -13 -36 -16 -33 -3
3 0 22 7 42 16 47 23 40 9 -9z m64 -89 c9 -1 16 -6 14 -12 -7 -19 -37 -17 -70
5 l-32 22 35 -7 c19 -4 43 -8 53 -8z"/>
<path d="M9873 11393 c-4 -9 1 -37 10 -62 9 -25 14 -47 12 -49 -2 -2 -34 18
-72 44 -66 48 -67 48 -39 14 34 -42 80 -67 123 -68 17 0 46 -8 65 -18 31 -16
29 -13 -21 40 -29 32 -51 60 -47 63 8 9 103 -55 120 -83 9 -13 22 -24 30 -24
7 0 40 -11 74 -25 34 -14 66 -25 72 -25 22 0 8 17 -34 40 -25 13 -44 28 -43
33 1 6 -11 14 -28 18 -16 5 -63 33 -102 64 -75 57 -109 68 -120 38z"/>
<path d="M9915 11230 c11 -5 27 -9 35 -9 13 -1 13 0 0 9 -8 5 -24 9 -35 9
l-20 0 20 -9z"/>
<path d="M9190 11160 c-14 -4 -20 -9 -15 -9 6 -1 1 -8 -9 -16 -26 -20 -15 -19
29 2 52 25 49 40 -5 23z"/>
<path d="M6147 11139 c7 -7 15 -10 18 -7 3 3 -2 9 -12 12 -14 6 -15 5 -6 -5z"/>
<path d="M4489 11123 c11 -4 8 -10 -10 -24 -20 -16 -21 -18 -4 -12 11 4 34 15
50 25 l30 18 -40 -1 c-22 0 -34 -3 -26 -6z"/>
<path d="M10080 11112 c0 -5 7 -13 16 -16 10 -4 14 -1 12 6 -5 15 -28 23 -28
10z"/>
<path d="M10260 11060 c0 -11 89 -74 96 -67 6 6 -73 77 -86 77 -6 0 -10 -4
-10 -10z"/>
<path d="M10217 11025 c16 -19 32 -35 37 -35 5 0 40 -26 78 -57 38 -32 77 -62
87 -68 19 -11 116 -123 145 -167 10 -16 24 -28 31 -28 8 0 22 -11 33 -25 25
-31 36 -32 26 -3 l-7 22 29 -19 c65 -42 194 -159 183 -166 -8 -4 1 -15 23 -30
23 -15 40 -37 50 -66 13 -37 14 -43 2 -39 -11 4 -11 0 2 -19 15 -23 33 -30 58
-26 5 1 25 -4 45 -12 20 -7 47 -11 61 -9 l25 4 -30 13 -30 14 43 -5 43 -4
-128 153 c-110 132 -198 216 -211 202 -2 -2 11 -17 30 -33 40 -37 31 -53 -12
-22 -17 12 -34 20 -37 17 -7 -8 -134 86 -205 152 -47 43 -59 60 -55 78 3 17
-7 33 -44 68 -51 48 -77 59 -59 26 5 -11 15 -23 20 -26 6 -3 10 -11 10 -17 0
-12 -65 24 -183 103 -82 55 -86 56 -60 24z m833 -705 c0 -5 -4 -10 -9 -10 -6
0 -13 5 -16 10 -3 6 1 10 9 10 9 0 16 -4 16 -10z"/>
<path d="M10370 11045 c0 -8 7 -15 16 -15 14 0 14 3 4 15 -7 8 -14 15 -16 15
-2 0 -4 -7 -4 -15z"/>
<path d="M2378 11013 c7 -3 16 -2 19 1 4 3 -2 6 -13 5 -11 0 -14 -3 -6 -6z"/>
<path d="M8835 10880 c-10 -11 -13 -20 -7 -20 6 0 16 9 22 20 6 11 9 20 7 20
-2 0 -12 -9 -22 -20z"/>
<path d="M4152 10849 c-19 -30 -8 -34 12 -4 9 14 13 25 9 25 -5 0 -14 -9 -21
-21z"/>
<path d="M10390 10850 c0 -5 5 -10 11 -10 5 0 7 5 4 10 -3 6 -8 10 -11 10 -2
0 -4 -4 -4 -10z"/>
<path d="M1946 10773 c-13 -13 -5 -19 42 -33 42 -12 45 -15 22 -20 -14 -4 -42
-6 -62 -4 -29 3 -41 -2 -53 -19 -16 -23 -57 -30 -65 -9 -9 22 -103 -71 -199
-197 -50 -66 -105 -128 -121 -138 -17 -9 -30 -21 -30 -25 0 -17 59 23 93 63
48 55 66 46 27 -14 -16 -26 -30 -51 -30 -55 0 -9 47 -30 85 -37 28 -5 36 1
104 77 40 46 114 125 163 175 49 51 87 97 83 103 -3 5 0 7 8 4 16 -6 100 83
91 97 -3 5 0 8 7 7 6 -2 13 2 15 7 5 14 -34 17 -57 4 -10 -5 -27 -5 -41 0 -41
15 -75 21 -82 14z m144 -27 c0 -3 -4 -8 -10 -11 -5 -3 -10 -1 -10 4 0 6 5 11
10 11 6 0 10 -2 10 -4z"/>
<path d="M10670 10767 c0 -2 14 -16 32 -33 30 -28 30 -17 0 19 -13 15 -32 23
-32 14z"/>
<path d="M3842 10663 c-10 -4 -10 -9 3 -23 9 -10 23 -16 31 -13 8 3 21 0 29
-7 9 -7 18 -10 22 -6 3 3 1 6 -6 6 -6 0 -11 6 -10 13 4 29 -3 37 -28 36 -16 0
-34 -3 -41 -6z"/>
<path d="M4033 10601 c-2 -22 27 -30 76 -23 38 5 40 19 5 32 -43 17 -80 13
-81 -9z"/>
<path d="M4153 10599 c4 -13 7 -27 7 -31 0 -12 30 -9 30 2 0 6 -4 10 -9 10 -5
0 -8 7 -7 16 0 9 -5 19 -13 22 -11 3 -12 -1 -8 -19z"/>
<path d="M4010 10520 c0 -13 18 -22 24 -11 3 5 -1 11 -9 15 -8 3 -15 1 -15 -4z"/>
<path d="M4040 10491 c0 -5 7 -12 16 -15 12 -5 15 -16 12 -46 -2 -23 0 -36 5
-31 5 5 16 7 25 4 10 -4 13 -2 8 5 -4 7 -1 12 9 12 8 0 20 -12 25 -26 6 -14
14 -23 19 -19 5 3 12 1 15 -3 5 -8 20 -9 79 -4 24 3 21 20 -5 42 -15 12 -32
17 -48 14 -22 -5 -23 -4 -7 6 18 11 18 12 0 26 -10 7 -32 14 -50 14 -17 0 -38
7 -47 15 -16 16 -56 21 -56 6z"/>
<path d="M10798 10458 c6 -7 25 -22 44 -32 l33 -19 -29 32 c-28 30 -72 47 -48
19z"/>
<path d="M3420 10390 c0 -5 9 -10 20 -10 11 0 20 5 20 10 0 6 -9 10 -20 10
-11 0 -20 -4 -20 -10z"/>
<path d="M3443 10342 c-26 -3 -34 -9 -43 -38 -18 -55 -8 -58 39 -10 25 25 43
47 40 48 -2 2 -18 2 -36 0z"/>
<path d="M4180 10342 c1 -8 170 -126 170 -117 0 3 -11 28 -25 55 -22 44 -28
49 -58 49 -17 -1 -44 4 -59 10 -16 6 -28 7 -28 3z"/>
<path d="M1519 10264 c-13 -15 -49 -43 -79 -62 -84 -54 -197 -168 -255 -257
-28 -44 -59 -86 -68 -94 -9 -7 -17 -21 -17 -30 0 -9 -11 -34 -25 -56 -13 -22
-25 -46 -25 -52 0 -27 16 -11 44 42 17 30 32 53 33 51 7 -7 -74 -183 -111
-240 -41 -64 -56 -69 -32 -12 22 52 0 34 -29 -24 -25 -50 -45 -71 -45 -48 0
13 20 51 113 217 26 46 47 86 47 90 -1 11 -31 -33 -57 -83 -14 -27 -31 -56
-39 -64 -8 -7 -14 -19 -14 -26 0 -7 -25 -52 -56 -101 -31 -48 -63 -107 -71
-131 -8 -24 -19 -42 -25 -41 -6 1 -18 -18 -26 -43 -14 -40 -16 -42 -22 -21 -5
22 -7 21 -25 -19 -11 -24 -32 -61 -48 -82 -28 -39 -28 -58 -1 -58 34 0 -17
-97 -97 -187 -33 -37 -72 -90 -85 -118 -14 -27 -18 -41 -10 -31 9 11 18 17 21
15 5 -6 -48 -109 -77 -151 -16 -23 -48 -100 -48 -116 0 -3 9 3 20 13 24 22 27
4 4 -30 -8 -13 -22 -67 -30 -120 -16 -106 -19 -115 -38 -115 -13 0 -66 -157
-66 -193 0 -17 10 -17 73 0 15 4 17 0 11 -24 -18 -77 -56 -182 -69 -193 -12
-10 -13 -7 -5 22 12 40 13 111 2 104 -5 -3 -15 4 -22 15 -20 27 -26 24 -38
-20 -8 -32 -7 -38 4 -34 15 6 17 -3 16 -81 -1 -47 -21 -94 -22 -50 -1 24 -60
-102 -60 -127 0 -10 -8 -24 -17 -31 -18 -13 -37 -54 -55 -121 -8 -28 -8 -44 2
-61 8 -15 9 -36 5 -57 -7 -30 -9 -31 -16 -14 -5 14 -8 4 -8 -33 -1 -29 -8 -69
-16 -89 -9 -20 -17 -66 -19 -102 -2 -36 -12 -106 -21 -156 -18 -93 -21 -240
-13 -650 3 -172 4 -182 28 -215 20 -28 24 -45 23 -92 -1 -37 -8 -64 -17 -73
-9 -9 -13 -28 -11 -48 12 -96 18 -153 17 -159 -1 -5 4 -8 12 -8 8 0 18 -5 22
-12 5 -8 2 -9 -9 -5 -27 10 -20 -16 12 -47 25 -24 27 -31 21 -66 -4 -24 -3
-43 3 -49 8 -8 7 -11 -2 -11 -9 0 -8 -6 3 -22 9 -12 16 -32 16 -43 0 -37 17
-50 69 -51 27 -1 55 -5 62 -9 17 -11 5 58 -22 123 -14 34 -28 52 -39 52 -13 0
-17 8 -16 30 1 16 4 30 9 30 16 0 6 40 -13 50 -27 14 -25 32 3 28 15 -2 21 -9
19 -20 -5 -29 17 -21 24 8 4 17 1 37 -10 54 -9 16 -16 48 -17 72 0 52 -20 145
-37 175 -9 16 -9 29 0 53 8 25 8 49 -1 95 -6 37 -8 72 -3 86 5 13 5 36 -1 55
-7 22 -6 46 1 75 8 31 8 47 0 56 -7 9 -8 28 -3 56 17 88 3 339 -21 385 -7 13
-11 38 -8 56 2 17 6 54 10 81 l6 50 14 -50 c7 -27 13 -71 14 -97 0 -26 4 -49
9 -52 4 -3 11 47 15 112 12 226 18 287 32 302 7 9 18 49 25 90 6 41 17 89 24
105 7 17 18 68 24 115 16 113 26 151 66 240 18 41 37 93 41 115 8 47 17 55 64
55 30 -1 33 -2 19 -13 -13 -10 20 -11 165 -8 146 3 183 6 191 18 14 19 155 32
155 14 0 -6 17 -11 38 -12 35 0 36 -1 12 -10 -14 -6 -44 -9 -67 -6 -27 3 -49
0 -60 -9 -16 -12 -4 -14 87 -11 58 2 154 12 213 22 74 13 111 15 115 8 5 -6
26 -8 60 -3 57 7 64 0 30 -26 -22 -16 -22 -16 22 -10 24 4 50 12 57 18 9 7 13
7 13 0 0 -6 13 -10 29 -10 15 1 51 -7 79 -17 49 -18 56 -18 199 -1 96 12 218
18 350 19 112 0 200 4 197 8 -3 5 -1 9 4 9 6 0 12 -7 16 -15 7 -18 66 -21 66
-2 0 8 3 8 8 1 4 -7 32 -8 77 -4 54 5 82 2 124 -12 58 -19 91 -23 91 -10 0 5
-12 14 -27 21 -43 20 -10 31 90 31 69 0 87 -3 87 -14 0 -26 19 -28 93 -12 98
20 205 28 247 17 l35 -9 -35 -2 c-25 -2 -28 -4 -12 -7 31 -6 28 -21 -5 -26
-16 -3 6 -3 47 -1 41 3 126 6 187 8 74 2 121 8 135 18 24 14 68 13 68 -3 0
-16 48 -10 117 17 60 23 77 25 153 20 120 -9 129 -9 185 -8 28 0 99 1 158 2
60 1 123 6 140 11 49 15 214 22 200 8 -6 -6 -39 -13 -73 -16 -62 -6 -63 -6
-35 -21 24 -12 42 -13 119 -3 50 7 105 14 121 17 37 7 71 7 200 0 55 -3 134
-8 175 -10 59 -3 76 -7 78 -20 4 -18 32 -15 94 11 50 21 139 13 178 -15 16
-12 42 -22 57 -21 l28 0 -22 16 c-13 8 -23 19 -23 23 0 4 89 10 198 14 108 3
226 9 262 12 58 6 63 5 52 -9 -12 -14 -9 -14 33 -2 25 8 52 12 59 9 8 -3 25 1
38 10 50 32 108 38 208 21 51 -9 130 -16 174 -15 104 2 100 2 86 -15 -11 -13
-8 -14 16 -10 16 3 85 15 154 27 137 24 176 26 232 16 29 -5 36 -4 32 7 -4 10
14 20 61 34 37 12 76 21 87 21 29 0 13 17 -25 26 l-32 8 45 7 c65 11 142 11
135 0 -3 -5 4 -11 15 -13 29 -4 29 -20 0 -36 -20 -11 -31 -11 -55 -2 -23 9
-26 13 -15 20 8 6 10 10 4 10 -6 0 -21 -8 -32 -17 -12 -10 -33 -26 -47 -36
-33 -23 -33 -39 0 -27 15 6 25 6 25 0 0 -5 15 -6 33 -3 23 3 37 0 46 -10 7 -9
19 -13 27 -10 8 3 65 0 127 -6 l112 -12 165 41 c91 22 216 47 278 55 140 19
137 19 123 1 -9 -11 -9 -20 -2 -35 6 -11 11 -21 11 -23 0 -2 -26 -2 -58 0 -61
4 -229 -12 -239 -22 -14 -14 8 -14 116 0 69 9 117 11 124 6 7 -5 32 -12 56
-16 34 -5 46 -3 56 10 9 13 39 18 146 25 73 4 135 6 138 3 10 -9 -11 -17 -66
-24 -51 -6 -53 -8 -17 -9 22 0 68 8 101 20 52 17 77 20 165 15 394 -21 674
-15 730 15 22 12 23 1 3 -28 -15 -21 -11 -20 57 9 40 17 118 50 174 73 l101
42 12 -49 c15 -54 8 -71 -39 -91 -23 -11 -20 -12 30 -15 30 -2 70 0 89 3 l33
6 -22 21 c-28 26 -14 43 25 28 15 -6 65 -19 111 -29 67 -14 84 -15 84 -5 0 17
35 39 74 48 28 7 28 6 23 -23 -8 -38 -2 -38 81 -10 l62 21 23 -28 c23 -26 26
-27 117 -25 109 2 191 18 310 61 48 17 106 30 133 30 44 0 46 -1 36 -19 -17
-25 -5 -49 27 -57 21 -5 41 1 83 25 160 92 340 154 387 132 15 -7 42 -7 80 -1
62 10 81 6 43 -9 -13 -5 -60 -23 -104 -41 -44 -18 -136 -52 -205 -75 -118 -40
-123 -43 -97 -54 16 -6 47 -11 70 -12 l42 -1 -30 -13 c-28 -13 -21 -14 83 -15
62 0 121 4 131 10 10 5 49 14 87 20 153 24 137 35 -22 15 -65 -8 -132 -15
-149 -15 l-30 1 22 18 c33 28 168 61 277 68 105 7 116 0 74 -44 l-21 -23 99 5
c70 3 90 2 69 -5 -21 -6 -8 -7 40 -2 107 11 281 8 370 -6 44 -7 93 -15 110
-18 38 -6 22 10 -27 25 -20 7 -55 25 -77 42 -40 28 -101 102 -101 122 0 5 18
7 45 3 l45 -7 0 70 c0 38 5 73 10 76 6 4 35 -20 64 -52 30 -32 58 -54 62 -50
5 5 4 11 -2 15 -27 19 -53 79 -48 113 4 27 -1 44 -25 82 -17 26 -31 52 -31 58
0 6 -5 7 -10 4 -6 -4 -15 7 -21 24 -6 17 -15 31 -20 31 -4 0 -6 7 -3 15 8 19
-3 19 -22 0 -16 -16 -63 -11 -75 8 -4 5 -11 7 -17 3 -6 -3 -23 -1 -39 6 -15 6
-34 10 -41 9 -8 -1 -19 2 -26 8 -7 6 -17 6 -26 1 -19 -12 94 -286 122 -293 30
-8 22 -44 -12 -50 -21 -5 -28 -11 -24 -22 5 -12 -2 -15 -37 -15 -94 0 -365 22
-381 31 -25 13 -120 11 -303 -7 -90 -9 -189 -13 -227 -9 -37 3 -134 6 -217 6
-86 0 -153 4 -156 9 -4 6 12 10 37 10 50 1 36 14 -26 26 -34 6 -38 5 -33 -10
5 -11 1 -16 -14 -16 -13 0 -19 -6 -17 -17 4 -21 -47 -34 -76 -20 -10 5 -44 7
-75 5 -31 -3 -69 -1 -85 3 -30 9 -268 -14 -309 -30 -35 -13 -211 -8 -229 7
-12 9 -23 10 -42 2 -36 -13 -36 -13 -36 10 0 10 -13 34 -29 52 -32 38 -59 84
-42 74 22 -14 10 20 -24 73 -20 30 -68 90 -108 135 -40 45 -95 112 -121 150
-61 86 -126 151 -257 256 -57 46 -131 107 -164 134 -58 49 -56 47 45 -74 75
-90 94 -117 67 -96 -67 49 -50 21 28 -48 41 -37 75 -73 75 -80 0 -6 29 -41 65
-76 41 -41 65 -58 65 -48 0 9 -5 20 -10 23 -5 3 -10 11 -10 17 0 6 9 3 20 -7
11 -10 20 -23 20 -30 0 -6 16 -26 35 -45 25 -25 33 -39 29 -56 -9 -34 26 -91
119 -195 89 -100 147 -176 147 -192 0 -12 -81 0 -95 14 -6 6 -5 13 5 20 12 8
11 9 -5 5 -11 -3 -75 -12 -142 -21 -67 -8 -129 -18 -139 -22 -12 -5 -15 -3 -9
6 6 11 -7 12 -66 5 -90 -9 -95 -9 -189 4 -41 6 -181 12 -310 12 -129 0 -327 5
-440 10 -140 6 -207 6 -211 -2 -4 -7 -28 -7 -77 1 -38 6 -84 8 -101 5 -21 -5
-32 -2 -36 7 -7 17 -267 25 -333 11 -39 -9 -59 -1 -29 12 6 3 -5 3 -25 0 -25
-4 -38 -2 -38 5 0 35 -143 -10 -155 -49 -6 -20 -11 -21 -66 -15 -36 4 -79 2
-109 -5 -55 -13 -96 -7 -70 11 10 7 -56 8 -210 3 -124 -4 -283 -6 -354 -4
-107 2 -134 -1 -161 -16 -30 -16 -46 -17 -206 -6 -291 20 -369 21 -366 2 3
-19 -84 -26 -153 -11 -72 16 -220 24 -195 11 16 -8 10 -9 -25 -5 -56 6 -258
80 -239 88 8 3 -7 6 -33 6 -37 1 -48 -3 -48 -14 0 -14 -37 -35 -61 -35 -5 0
-14 11 -19 25 -9 23 -14 25 -72 25 -35 0 -108 -7 -163 -15 -55 -8 -137 -15
-182 -15 -61 0 -82 -3 -80 -12 2 -14 -3 -14 -312 -5 -148 5 -408 -11 -462 -28
-10 -3 -41 2 -70 11 -48 16 -66 16 -198 5 -163 -14 -271 -14 -285 0 -13 12
-113 12 -121 -1 -4 -7 -12 -7 -25 0 -10 5 -39 10 -65 10 l-46 0 23 39 c12 22
26 38 29 35 4 -2 14 7 23 21 9 13 45 57 81 97 40 44 63 78 60 87 -2 9 0 23 6
31 9 12 10 10 6 -8 -5 -19 -3 -21 9 -11 8 6 14 16 14 22 0 6 10 21 22 34 21
22 21 24 3 37 -23 17 -14 32 25 39 16 4 30 13 30 20 0 7 8 13 18 13 10 -1 54
40 103 94 48 53 109 113 135 135 27 22 81 69 119 105 39 37 111 94 160 127 50
34 117 84 150 112 32 28 66 53 75 55 8 2 26 7 40 10 34 8 120 80 183 155 35
41 78 77 127 106 89 53 121 58 66 11 -27 -23 -37 -39 -33 -50 8 -21 25 -13 92
48 l50 45 -32 1 c-23 0 -33 5 -33 15 0 16 16 20 24 6 11 -17 61 -8 98 17 49
32 48 38 -2 12 -53 -27 -59 -25 -27 8 15 16 24 32 20 36 -4 4 -1 5 7 2 8 -4
28 5 45 18 l29 24 -52 7 c-43 6 -56 4 -77 -13 -13 -11 -55 -25 -92 -32 -38 -7
-88 -23 -113 -35 -52 -26 -155 -102 -185 -136 l-20 -22 22 5 c13 4 25 2 28 -2
6 -10 -68 -75 -109 -97 -26 -14 -28 -14 -23 1 4 10 -15 2 -51 -22 -31 -22
-119 -72 -195 -113 -131 -70 -147 -82 -282 -211 -78 -76 -168 -170 -199 -211
-58 -76 -72 -104 -34 -71 21 19 21 19 11 0 -6 -10 -8 -27 -6 -37 6 -21 -53
-99 -93 -126 -19 -12 -27 -13 -38 -4 -12 10 -24 -1 -65 -63 -28 -41 -51 -78
-51 -81 0 -3 10 -1 23 5 27 14 16 5 -67 -55 -56 -40 -99 -103 -125 -186 l-12
-36 -83 -6 c-45 -4 -97 -12 -115 -18 -25 -9 -45 -9 -85 1 -62 15 -287 9 -384
-10 -61 -12 -62 -13 -46 -31 10 -11 19 -17 22 -15 6 7 32 -20 32 -33 0 -34 72
-70 82 -41 2 6 9 1 16 -10 11 -18 10 -20 -15 -21 -16 -1 -43 -3 -60 -5 -18 -2
-33 0 -33 5 0 5 -10 11 -22 13 -16 2 -22 9 -20 21 2 9 -1 17 -7 17 -12 0 -35
66 -27 79 13 20 -28 29 -194 40 -231 15 -227 15 -233 -10 -6 -24 12 -59 30
-59 7 0 17 -8 22 -17 10 -16 11 -16 17 5 5 19 11 22 28 16 11 -4 37 -6 57 -6
31 1 38 -3 51 -31 l15 -32 -53 -1 c-30 -1 -54 3 -54 8 0 5 -4 7 -8 4 -9 -5
-83 29 -119 54 -26 19 -34 44 -13 45 8 0 15 7 15 15 0 13 -22 15 -140 15 -100
0 -140 -3 -140 -12 0 -20 -14 -26 -29 -14 -8 7 -24 10 -35 6 -16 -5 -19 -3
-15 8 6 17 -60 25 -296 33 -142 5 -171 4 -210 -11 -25 -9 -72 -22 -105 -27
-84 -14 -96 -20 -60 -28 l30 -7 -27 -13 c-16 -7 -28 -17 -28 -22 0 -10 -45
-11 -89 -2 -37 8 -41 24 -6 24 14 0 25 4 25 9 0 13 -26 21 -66 21 -40 0 -42
11 -13 59 11 19 33 68 49 110 81 218 235 538 393 813 53 92 104 179 113 193
l17 26 -27 -10 c-14 -6 -26 -8 -26 -6 0 13 83 135 91 135 12 0 11 -16 -2 -43
-10 -22 -10 -22 6 -2 9 11 25 50 36 86 11 38 31 77 45 90 28 26 29 25 9 -32
-13 -39 -13 -42 0 -24 9 11 20 37 26 60 22 82 94 195 124 195 12 0 89 93 145
173 l15 22 -27 -18 c-36 -23 -35 -10 1 39 22 28 27 42 19 51 -8 10 -7 13 4 13
8 0 31 18 53 40 38 39 39 40 19 58 -10 10 -26 16 -36 14 -9 -2 -19 2 -23 7
-10 17 -19 13 -46 -15z m3117 -497 c11 -11 -19 -8 -36 3 -12 8 -10 9 7 7 12
-2 26 -6 29 -10z m-1416 -1137 c-20 -13 -40 -12 -40 1 0 6 7 9 15 6 8 -4 17
-2 21 4 3 6 9 8 12 4 4 -3 0 -10 -8 -15z m-1515 -380 c3 -5 -1 -10 -10 -10 -9
0 -13 5 -10 10 3 6 8 10 10 10 2 0 7 -4 10 -10z m200 -10 c3 -5 1 -10 -4 -10
-6 0 -11 5 -11 10 0 6 2 10 4 10 3 0 8 -4 11 -10z m-227 -18 c6 -18 -15 -14
-22 4 -4 10 -1 14 6 12 6 -2 14 -10 16 -16z m-148 -11 c0 -14 -5 -18 -20 -14
-19 5 -20 6 -3 19 23 17 23 17 23 -5z m476 -7 c-3 -8 -1 -14 4 -14 6 0 10 5
10 10 0 6 12 10 26 10 14 0 23 -4 19 -10 -4 -6 -11 -8 -16 -5 -15 10 -10 -7 9
-28 10 -12 11 -17 3 -12 -8 4 -27 8 -42 7 -27 -1 -29 2 -29 34 0 22 4 33 11
29 6 -4 8 -13 5 -21z m1194 11 c0 -9 -6 -12 -15 -9 -8 4 -15 10 -15 15 0 5 7
9 15 9 8 0 15 -7 15 -15z m-1038 -17 c-7 -7 -12 -8 -12 -2 0 14 12 26 19 19 2
-3 -1 -11 -7 -17z m1323 12 c-3 -5 -10 -10 -16 -10 -5 0 -9 5 -9 10 0 6 7 10
16 10 8 0 12 -4 9 -10z m-506 -12 c14 -1 -5 -19 -41 -39 -15 -8 -18 -6 -18 11
0 12 -7 20 -17 21 -16 0 -15 2 2 9 11 5 29 7 40 4 11 -3 26 -6 34 -6z m-1419
-8 c0 -5 -4 -10 -10 -10 -5 0 -10 5 -10 10 0 6 5 10 10 10 6 0 10 -4 10 -10z
m60 -10 c13 -8 13 -10 -2 -10 -9 0 -20 5 -23 10 -8 13 5 13 25 0z m-300 -10
c0 -5 -4 -10 -10 -10 -5 0 -10 5 -10 10 0 6 5 10 10 10 6 0 10 -4 10 -10z
m860 6 c0 -3 -4 -8 -10 -11 -5 -3 -10 -1 -10 4 0 6 5 11 10 11 6 0 10 -2 10
-4z m550 -22 c0 -8 -4 -12 -10 -9 -5 3 -10 10 -10 16 0 5 5 9 10 9 6 0 10 -7
10 -16z m-1275 -14 c3 -5 -4 -6 -15 -3 -11 3 -22 9 -25 13 -3 5 4 6 15 3 11
-3 22 -9 25 -13z m1002 -2 c-3 -8 -6 -5 -6 6 -1 11 2 17 5 13 3 -3 4 -12 1
-19z m-1127 2 c0 -5 -5 -10 -11 -10 -5 0 -7 5 -4 10 3 6 8 10 11 10 2 0 4 -4
4 -10z m1535 -10 c3 -5 1 -10 -4 -10 -6 0 -11 5 -11 10 0 6 2 10 4 10 3 0 8
-4 11 -10z m175 6 c0 -2 -12 -12 -27 -21 l-28 -18 19 21 c17 20 36 29 36 18z
m-873 -28 c-3 -8 -6 -5 -6 6 -1 11 2 17 5 13 3 -3 4 -12 1 -19z m408 12 c3 -6
-4 -10 -17 -10 -18 0 -20 2 -8 10 19 12 18 12 25 0z m679 -21 c-8 -14 -24 -10
-24 6 0 9 6 12 15 9 8 -4 12 -10 9 -15z m46 11 c0 -5 -4 -10 -10 -10 -5 0 -10
5 -10 10 0 6 5 10 10 10 6 0 10 -4 10 -10z m4150 1 c0 -5 -9 -7 -20 -4 -11 3
-20 7 -20 9 0 2 9 4 20 4 11 0 20 -4 20 -9z m-4947 -32 c-4 -13 -9 -17 -15
-11 -11 11 -3 32 12 32 4 0 6 -9 3 -21z m-2043 1 c-20 -13 -50 -13 -50 0 0 6
15 10 33 10 24 0 28 -3 17 -10z m1490 -25 c7 -9 8 -15 2 -15 -5 0 -12 7 -16
15 -3 8 -4 15 -2 15 2 0 9 -7 16 -15z m-1810 -2275 c0 -13 -11 -13 -30 0 -12
8 -11 10 8 10 12 0 22 -4 22 -10z"/>
<path d="M10987 10266 c24 -43 98 -138 123 -160 26 -21 34 -24 50 -14 22 14
17 26 -17 39 -13 5 -21 13 -18 19 6 10 -46 93 -66 106 -23 14 -79 22 -72 10z"/>
<path d="M11159 10262 c12 -22 50 -57 56 -51 6 7 -45 69 -56 69 -6 0 -6 -6 0
-18z"/>
<path d="M6173 10210 c-79 -9 -103 -18 -82 -30 17 -11 -53 -30 -108 -30 -30 0
-41 4 -38 13 5 12 -15 12 -399 8 -22 0 -43 2 -48 5 -5 3 -16 0 -25 -8 -12 -9
-15 -9 -9 0 11 18 -25 15 -49 -5 -11 -9 -14 -13 -5 -11 27 9 207 -10 246 -27
36 -15 36 -16 18 -31 -17 -13 -10 -14 75 -9 52 3 109 12 129 20 19 8 44 14 56
14 17 -1 17 -2 4 -6 -39 -10 -15 -23 42 -23 55 0 78 11 48 23 -7 3 3 5 22 4
19 0 54 4 78 10 50 13 54 5 11 -20 -18 -10 -29 -20 -26 -23 3 -3 39 -1 79 6
41 6 103 11 139 12 35 0 87 7 114 14 60 16 70 16 345 5 226 -9 245 -11 430
-42 153 -25 449 -103 437 -115 -2 -3 -36 2 -75 11 -40 9 -76 14 -82 10 -18
-11 30 -48 100 -77 36 -14 110 -46 165 -71 106 -48 175 -67 175 -48 0 6 -4 11
-10 11 -14 0 -123 71 -117 76 3 3 33 -2 67 -11 34 -9 64 -15 66 -13 2 2 -25
15 -58 28 l-62 25 32 9 c18 5 31 14 29 19 -10 30 -69 50 -277 96 -124 28 -281
66 -350 86 -143 41 -345 78 -504 94 -121 12 -471 12 -583 1z"/>
<path d="M11227 10183 c-6 -10 8 -28 58 -73 l38 -35 -33 48 c-39 55 -56 71
-63 60z"/>
<path d="M11357 10090 c5 -20 15 -25 26 -13 8 7 -11 33 -23 33 -5 0 -6 -9 -3
-20z"/>
<path d="M5296 10058 c-9 -5 -24 -7 -33 -4 -10 4 -21 -1 -30 -14 -8 -11 -21
-20 -29 -20 -8 0 -14 -4 -14 -8 0 -16 25 -32 49 -32 24 0 24 1 5 15 -19 14
-19 14 2 15 11 0 25 -5 31 -11 7 -7 20 -8 34 -3 13 4 32 7 41 5 16 -2 16 0 2
27 -17 35 -34 44 -58 30z"/>
<path d="M2109 10055 c-1 -5 -2 -19 -3 -30 -1 -11 -19 -89 -41 -174 l-40 -154
-195 7 c-167 6 -192 5 -175 -7 11 -7 84 -51 163 -96 78 -46 142 -87 142 -91 0
-5 -20 -59 -44 -122 -25 -62 -56 -144 -70 -181 l-26 -69 71 64 c126 111 149
130 149 119 0 -5 -4 -13 -10 -16 -5 -3 -10 -11 -10 -16 0 -13 38 7 72 38 l27
25 33 -20 c19 -12 43 -30 53 -42 10 -11 23 -20 30 -20 6 0 29 -19 50 -41 22
-23 63 -59 90 -81 28 -22 69 -63 93 -90 23 -27 42 -47 42 -44 0 3 -27 71 -60
151 -33 80 -60 149 -60 154 0 11 -45 117 -65 153 -19 33 -19 48 -1 48 18 0
115 56 200 115 33 23 80 52 104 64 23 12 42 24 42 27 0 5 -399 -4 -434 -10 -5
0 -32 71 -60 159 -58 178 -63 194 -67 180z"/>
<path d="M10509 10050 c-1 -8 -1 -19 0 -24 1 -4 -15 -72 -35 -150 -21 -77 -37
-150 -37 -161 1 -20 -3 -20 -161 -12 -88 4 -177 6 -196 5 -34 -3 -31 -5 75
-69 61 -36 133 -79 162 -94 29 -15 50 -31 48 -36 -3 -4 0 -11 6 -15 8 -5 6
-12 -8 -23 -27 -22 -46 -68 -31 -77 7 -5 6 -11 -6 -19 -27 -20 -68 -135 -54
-152 9 -11 7 -12 -7 -7 -15 6 -17 3 -13 -14 4 -13 0 -23 -8 -26 -8 -3 -14 -10
-14 -16 0 -14 59 31 59 45 1 6 16 19 33 30 18 10 52 37 75 58 26 23 43 34 43
25 0 -8 -6 -20 -12 -27 -28 -27 27 2 59 32 l32 30 45 -17 c28 -11 43 -22 40
-30 -7 -17 17 -35 49 -38 14 -1 24 -4 22 -7 -9 -8 17 -31 28 -24 5 3 7 2 4 -4
-8 -12 158 -173 179 -173 10 0 6 8 -13 26 -15 15 -19 20 -9 13 17 -13 18 -12
11 9 -26 85 -45 110 -92 126 -26 9 -55 16 -65 16 -10 0 -18 6 -18 14 0 8 -16
20 -35 27 -41 15 -46 29 -11 29 30 0 86 -31 86 -47 0 -13 1 -14 36 -18 12 -1
26 -5 33 -9 6 -4 11 -6 11 -4 0 9 -80 210 -95 238 -15 29 -15 31 10 40 14 5
25 12 25 14 0 9 -57 35 -63 29 -11 -11 -65 18 -70 38 -6 24 11 25 42 2 14 -9
21 -11 17 -5 -3 6 -2 13 3 17 6 3 15 -4 21 -15 8 -15 17 -19 31 -15 11 4 30 0
45 -9 22 -15 27 -15 55 0 l32 16 -44 20 c-43 20 -44 20 -19 30 25 10 24 10
-18 29 -24 10 -41 23 -37 29 10 16 27 12 51 -11 15 -14 43 -23 83 -28 57 -7
65 -5 121 26 33 19 60 37 60 39 0 3 -99 3 -220 -1 -210 -7 -220 -7 -227 11 -9
24 -21 35 -58 54 -15 8 -31 22 -33 30 -4 12 -1 11 15 -2 11 -10 27 -18 37 -18
12 0 16 6 12 18 -52 182 -84 267 -87 232z m96 -320 c3 -4 -7 -7 -20 -7 -14 0
-27 3 -30 7 -3 4 7 8 20 8 14 0 27 -4 30 -8z m40 -30 c3 -5 1 -10 -4 -10 -6 0
-11 5 -11 10 0 6 2 10 4 10 3 0 8 -4 11 -10z m-105 -20 c19 -6 51 -13 70 -15
68 -9 99 -16 104 -24 3 -4 -8 -8 -23 -7 -16 1 -27 4 -25 7 2 3 -18 4 -44 2
-110 -9 -162 2 -162 32 0 18 31 19 80 5z m240 -40 c0 -5 -9 -10 -19 -10 -11 0
-23 5 -26 10 -4 6 5 10 19 10 14 0 26 -4 26 -10z m-325 -238 c-3 -3 -11 0 -18
7 -9 10 -8 11 6 5 10 -3 15 -9 12 -12z m50 -32 c3 -5 -1 -10 -9 -10 -9 0 -16
5 -16 10 0 6 4 10 9 10 6 0 13 -4 16 -10z"/>
<path d="M11165 10040 c18 -20 45 -27 45 -12 0 15 -24 32 -44 32 -18 0 -19 -1
-1 -20z"/>
<path d="M6830 10041 c0 -5 15 -11 33 -14 52 -9 232 -20 227 -14 -5 5 -222 37
-251 37 -5 0 -9 -4 -9 -9z"/>
<path d="M11213 9990 c47 -60 73 -80 114 -86 24 -3 46 -10 49 -15 4 -8 -40 -4
-74 7 -8 2 -5 -8 8 -24 11 -15 51 -69 87 -119 37 -51 71 -93 75 -93 5 0 7 4 3
9 -3 6 7 6 26 1 39 -12 54 -25 17 -16 -41 10 -41 -6 0 -66 21 -29 37 -59 35
-65 -4 -11 23 -73 32 -73 2 0 0 11 -5 25 -19 51 0 22 48 -70 37 -72 45 -95 33
-95 -10 0 -3 -12 21 -35 39 -38 118 -180 118 -212 0 -11 19 -64 43 -119 32
-73 50 -102 69 -111 23 -12 25 -17 21 -57 -3 -25 -2 -53 1 -63 4 -10 8 -20 9
-23 3 -12 48 -28 79 -28 18 0 46 -5 62 -11 19 -8 32 -8 40 -2 13 11 53 4 74
-12 15 -12 15 -5 0 44 -6 22 -17 39 -25 39 -18 0 -94 71 -128 120 -16 23 -28
56 -30 77 -1 22 -38 116 -87 223 -73 159 -89 187 -116 201 -17 9 -29 19 -25
23 3 3 13 0 21 -7 14 -10 15 -9 7 8 -4 11 -15 39 -23 63 -15 43 -61 80 -83 66
-6 -3 -9 0 -7 8 2 8 -18 33 -44 55 -106 92 -231 242 -226 271 3 20 -52 100
-104 149 -29 28 -40 32 -80 31 -41 -2 -45 -4 -35 -18z m527 -620 c0 -12 -17
-12 -45 0 -17 7 -15 9 13 9 17 1 32 -3 32 -9z"/>
<path d="M5056 9991 c-3 -4 23 -8 57 -9 42 0 56 3 42 8 -27 11 -92 12 -99 1z"/>
<path d="M4998 9852 c-32 -20 -58 -40 -58 -44 0 -12 89 32 116 57 40 37 8 30
-58 -13z"/>
<path d="M11548 9865 c6 -11 25 -33 42 -50 23 -21 29 -24 22 -10 -6 11 -25 34
-42 50 -23 21 -29 24 -22 10z"/>
<path d="M7977 9859 c7 -7 15 -10 18 -7 3 3 -2 9 -12 12 -14 6 -15 5 -6 -5z"/>
<path d="M4880 9849 c0 -11 28 -11 55 0 15 7 11 9 -17 9 -21 0 -38 -4 -38 -9z"/>
<path d="M11519 9765 c15 -30 60 -82 61 -69 0 6 -16 28 -35 50 -20 21 -31 30
-26 19z"/>
<path d="M4720 9750 c-9 -6 -10 -10 -3 -10 6 0 15 5 18 10 8 12 4 12 -15 0z"/>
<path d="M8250 9756 c0 -2 51 -34 113 -70 109 -63 157 -100 144 -112 -6 -6
-113 23 -137 37 -33 21 -175 87 -179 83 -10 -9 25 -35 61 -46 22 -6 43 -18 46
-26 6 -18 191 -140 267 -178 47 -22 61 -25 76 -16 10 7 26 12 34 12 19 0 105
-78 105 -94 0 -7 17 -28 38 -48 44 -43 192 -152 192 -142 0 4 -24 37 -53 73
-86 106 -97 127 -64 122 38 -6 -60 72 -143 114 -55 28 -153 96 -165 114 -3 6
-27 20 -52 31 -26 11 -70 38 -98 60 -66 51 -185 106 -185 86z"/>
<path d="M11607 9723 c11 -29 55 -93 64 -93 5 0 9 -6 9 -14 0 -7 7 -19 15 -26
13 -10 15 -9 15 8 0 12 -23 48 -50 81 -53 64 -64 72 -53 44z"/>
<path d="M10865 9633 c21 -15 45 -17 45 -4 0 5 -14 11 -32 13 -28 5 -29 4 -13
-9z"/>
<path d="M11728 9584 c13 -25 42 -50 42 -37 0 5 -12 20 -26 34 -24 21 -26 22
-16 3z"/>
<path d="M11760 9500 c0 -5 5 -10 11 -10 5 0 7 5 4 10 -3 6 -8 10 -11 10 -2 0
-4 -4 -4 -10z"/>
<path d="M11630 9350 c6 -11 13 -20 16 -20 2 0 0 9 -6 20 -6 11 -13 20 -16 20
-2 0 0 -9 6 -20z"/>
<path d="M9156 9142 c-3 -5 15 -29 41 -53 l45 -44 -33 52 c-34 53 -43 60 -53
45z"/>
<path d="M10891 9033 c7 -12 15 -20 18 -17 3 2 -3 12 -13 22 -17 16 -18 16 -5
-5z"/>
<path d="M12289 8206 c14 -14 26 -24 29 -22 7 8 -8 25 -31 37 -21 11 -21 10 2
-15z"/>
<path d="M9555 8084 c-22 -20 -32 -33 -22 -30 10 3 43 6 74 6 l55 0 -24 29
c-13 17 -27 30 -33 30 -5 0 -28 -16 -50 -35z"/>
<path d="M10752 8052 c-13 -4 -24 -11 -25 -17 -3 -14 83 -19 96 -6 6 6 27 12
47 12 34 1 33 2 -10 10 -53 9 -77 9 -108 1z"/>
<path d="M4810 8030 c0 -5 -19 -10 -42 -10 -27 0 -39 -3 -32 -10 9 -9 89 -22
199 -34 l50 -5 -65 24 c-36 13 -66 29 -68 35 -5 13 -42 13 -42 0z"/>
<path d="M12271 8015 c0 -5 6 -19 14 -29 8 -11 15 -15 15 -10 0 6 -7 19 -15
30 -8 10 -14 15 -14 9z"/>
<path d="M5100 7990 c8 -5 22 -10 30 -10 13 0 13 1 0 10 -8 5 -22 10 -30 10
-13 0 -13 -1 0 -10z"/>
<path d="M3141 7981 c-25 -16 6 -21 35 -6 l29 15 -25 0 c-14 0 -31 -4 -39 -9z"/>
<path d="M2860 7970 c0 -5 9 -10 20 -10 11 0 20 5 20 10 0 6 -9 10 -20 10 -11
0 -20 -4 -20 -10z"/>
<path d="M12220 7869 c0 -5 5 -7 10 -4 6 3 10 8 10 11 0 2 -4 4 -10 4 -5 0
-10 -5 -10 -11z"/>
<path d="M12366 7823 c-6 -14 -5 -15 5 -6 7 7 10 15 7 18 -3 3 -9 -2 -12 -12z"/>
<path d="M12370 7750 c0 -5 5 -10 11 -10 5 0 7 5 4 10 -3 6 -8 10 -11 10 -2 0
-4 -4 -4 -10z"/>
<path d="M12305 7721 c-3 -5 -1 -12 5 -16 5 -3 10 1 10 9 0 18 -6 21 -15 7z"/>
<path d="M12245 7710 c-3 -5 -1 -10 4 -10 6 0 11 5 11 10 0 6 -2 10 -4 10 -3
0 -8 -4 -11 -10z"/>
<path d="M12340 7690 c-12 -8 -9 -10 13 -10 16 0 26 4 22 10 -8 12 -16 12 -35
0z"/>
<path d="M12310 7681 c0 -6 4 -13 10 -16 6 -3 7 1 4 9 -7 18 -14 21 -14 7z"/>
<path d="M12404 7643 c0 -10 12 -20 26 -24 34 -8 42 -2 27 21 -15 25 -55 27
-53 3z"/>
<path d="M12315 7640 c-3 -5 -1 -10 4 -10 6 0 11 5 11 10 0 6 -2 10 -4 10 -3
0 -8 -4 -11 -10z"/>
<path d="M12368 7643 c-10 -2 -18 -9 -18 -14 0 -14 16 -11 30 6 7 8 11 14 9
14 -2 -1 -12 -3 -21 -6z"/>
<path d="M12335 7571 c-3 -5 0 -13 5 -16 7 -4 8 -19 4 -37 -5 -27 -4 -30 11
-24 22 8 45 -10 45 -35 0 -12 -7 -19 -19 -19 -16 0 -31 -18 -31 -36 0 -2 14
-4 31 -4 17 0 28 4 24 10 -5 9 10 14 57 22 9 2 24 -6 32 -17 14 -19 15 -16 13
32 l-2 52 -35 -5 c-23 -4 -42 0 -55 10 -20 16 -20 16 5 37 l25 21 -29 -7 c-18
-4 -37 0 -52 9 -13 9 -25 12 -29 7z"/>
<path d="M12373 7371 c11 -13 18 -33 20 -63 1 -9 5 -14 9 -12 4 3 8 1 8 -5 0
-5 -8 -15 -17 -20 -10 -6 -12 -11 -5 -11 14 0 16 -36 2 -45 -20 -13 -9 -33 20
-37 23 -3 30 -1 26 9 -3 7 -1 13 4 13 6 0 10 -4 10 -10 0 -5 12 -12 28 -16 51
-11 62 -15 62 -23 0 -11 -92 -1 -104 10 -14 13 -28 11 -20 -2 5 -8 -1 -10 -20
-7 -17 4 -26 1 -26 -8 0 -23 12 -44 25 -44 8 0 17 -9 20 -20 4 -11 15 -20 27
-20 17 0 19 -4 13 -27 -3 -16 -11 -29 -16 -31 -14 -5 -11 -28 6 -42 19 -16 21
-84 2 -77 -8 3 -20 1 -28 -4 -12 -8 -12 -10 1 -8 44 4 59 -1 55 -21 -2 -12 5
-29 17 -40 11 -10 18 -26 15 -34 -4 -9 1 -17 11 -19 14 -4 13 -6 -5 -12 l-23
-7 20 -26 c13 -16 17 -29 11 -36 -5 -6 -11 -43 -14 -82 -3 -43 -11 -81 -22
-97 -9 -15 -14 -27 -10 -27 4 0 2 -6 -4 -13 -14 -18 -4 -27 30 -27 15 0 29 -7
33 -16 8 -22 8 -26 -4 -19 -15 9 -25 -24 -11 -38 6 -6 11 -21 11 -33 0 -12 6
-24 12 -26 18 -6 16 -51 -2 -65 -13 -11 -12 -12 8 -13 26 0 29 -15 6 -24 -9
-3 -14 -13 -10 -21 4 -11 -8 -19 -42 -29 -26 -8 -39 -15 -29 -15 9 -1 17 -5
17 -11 0 -5 -3 -9 -7 -9 -29 5 -36 -2 -20 -19 10 -10 17 -24 17 -30 0 -7 7
-12 15 -12 18 0 19 -5 4 -29 -9 -14 -8 -25 5 -51 12 -26 13 -35 4 -41 -9 -6
-9 -13 0 -33 10 -22 9 -26 -3 -26 -21 0 -19 -30 3 -31 9 -1 20 -1 25 0 4 0 7
-4 7 -10 0 -7 -11 -9 -30 -5 -29 5 -41 -6 -20 -19 6 -4 8 -10 5 -15 -7 -12 23
-18 74 -15 37 2 48 -2 82 -33 21 -20 39 -39 39 -42 0 -4 -43 -1 -95 5 -108 12
-122 6 -130 -55 -3 -18 -12 -44 -21 -58 -16 -24 -16 -26 2 -38 11 -7 24 -18
31 -24 7 -5 20 -10 30 -10 10 0 25 -5 33 -10 11 -7 8 -10 -16 -10 -37 0 -52
-19 -81 -105 -12 -33 -24 -67 -27 -76 -7 -17 -1 -20 71 -38 25 -7 30 -6 26 5
-6 16 13 19 23 3 3 -6 14 -9 24 -6 25 7 60 -20 60 -45 0 -17 -2 -18 -15 -8
-12 10 -15 10 -15 0 0 -10 -3 -10 -15 0 -8 7 -15 19 -15 26 0 8 -5 14 -11 14
-6 0 -9 -7 -6 -15 4 -8 2 -17 -3 -20 -6 -4 -10 1 -10 10 0 9 -4 14 -9 11 -5
-3 -31 1 -57 9 -61 18 -59 18 -43 -2 8 -9 27 -22 44 -29 27 -12 28 -13 8 -15
-13 -1 -27 -3 -33 -4 -5 -1 -19 -3 -30 -4 -23 -1 -28 -21 -6 -21 22 0 29 -19
15 -37 -19 -22 -17 -122 1 -133 12 -8 11 -10 -6 -10 -27 0 -56 -32 -48 -54 3
-9 1 -16 -5 -16 -6 0 -11 -10 -11 -22 -1 -13 -7 -34 -15 -48 -19 -34 -18 -48
3 -53 13 -4 11 -5 -5 -6 -25 -1 -31 -17 -10 -24 9 -3 8 -15 -5 -53 -9 -27 -20
-69 -23 -93 l-7 -44 31 6 c20 4 46 1 68 -8 l35 -15 -23 -19 c-18 -15 -29 -17
-51 -9 -15 6 -25 14 -22 19 3 5 1 9 -5 9 -5 0 -12 -4 -16 -10 -3 -5 -12 -7
-19 -4 -8 3 -28 -2 -45 -10 -23 -13 -63 -16 -182 -16 -129 0 -155 -3 -171 -17
-23 -20 -134 -31 -151 -14 -6 6 -27 11 -47 12 -33 0 -34 1 -10 10 14 6 45 9
70 6 49 -5 70 -1 70 15 0 14 -195 4 -300 -16 -98 -18 -134 -20 -125 -7 3 6
-17 7 -50 4 -57 -6 -67 0 -37 24 15 12 13 13 -23 9 -80 -11 -121 -9 -178 9
-51 16 -68 17 -160 6 -189 -22 -386 -30 -531 -21 -77 5 -177 5 -221 1 -67 -7
-88 -5 -128 10 -52 20 -87 24 -87 10 0 -5 7 -11 15 -15 25 -9 17 -25 -17 -30
-18 -3 -71 -8 -118 -10 -47 -3 -112 -14 -145 -25 -63 -22 -95 -26 -95 -13 0
11 50 29 100 36 48 6 100 26 100 39 0 10 -21 9 -92 -7 -35 -8 -98 -18 -140
-21 -55 -5 -78 -11 -78 -21 0 -7 -5 -16 -11 -20 -9 -5 -10 1 -5 20 6 23 3 26
-21 27 -22 2 -19 3 12 9 31 6 34 7 13 9 -27 1 -38 16 -18 23 6 2 -45 1 -112
-1 -68 -1 -125 -7 -126 -12 -2 -5 -20 -7 -39 -3 -22 4 -44 2 -60 -7 -22 -12
-23 -14 -6 -21 12 -6 10 -6 -7 -2 -14 3 -43 6 -65 6 -22 1 -32 3 -22 5 9 3 17
9 17 14 0 17 -50 9 -110 -16 -59 -25 -64 -25 -243 -19 -244 8 -341 5 -407 -10
-30 -8 -89 -14 -130 -15 -64 0 -73 1 -58 13 10 7 15 16 11 19 -3 4 10 7 30 7
21 0 37 5 37 11 0 8 -14 10 -42 5 -24 -3 -72 -9 -108 -12 -36 -3 -75 -10 -87
-16 -15 -7 -40 -7 -85 1 -53 9 -65 9 -74 -4 -14 -19 -25 -20 -18 -2 5 14 -20
16 -188 20 -50 1 -58 3 -58 20 0 16 -5 18 -32 12 -18 -4 -48 -14 -67 -21 -51
-21 -112 -17 -165 11 -46 25 -93 34 -82 16 3 -5 16 -7 29 -4 16 3 18 2 9 -5
-8 -5 -12 -13 -10 -18 1 -5 -80 -12 -182 -15 -102 -3 -218 -10 -257 -14 -53
-6 -73 -5 -73 4 0 6 5 11 12 11 6 0 9 2 6 5 -3 3 -24 -2 -48 -10 -24 -8 -52
-13 -62 -9 -11 3 -27 -1 -36 -9 -36 -31 -112 -39 -212 -22 -51 9 -130 16 -174
15 -103 -2 -104 -2 -86 10 29 18 3 18 -115 -1 -66 -10 -124 -18 -128 -19 -5 0
-5 -5 -1 -11 4 -7 26 -8 64 -4 37 4 66 3 79 -5 l22 -11 -22 -18 c-22 -17 -84
-18 -73 0 3 5 1 9 -5 9 -5 0 -11 -4 -13 -10 -2 -5 -18 -6 -42 0 -21 5 -63 7
-92 4 -34 -3 -55 0 -60 7 -4 8 -3 9 4 5 7 -4 12 -3 12 2 0 17 -44 22 -61 6 -9
-8 -48 -22 -88 -32 -39 -9 -71 -20 -71 -24 0 -3 15 -10 33 -14 l32 -8 -45 -7
c-64 -11 -142 -11 -136 0 3 5 -3 11 -14 14 -27 7 -25 21 5 35 28 13 81 -1 70
-18 -10 -16 2 -12 48 20 52 35 71 65 32 50 -13 -5 -27 -6 -29 -1 -3 5 -17 6
-31 3 -16 -3 -33 2 -44 12 -10 9 -25 14 -34 10 -9 -3 -65 -1 -125 6 -109 11
-109 11 -253 -24 -144 -35 -270 -59 -384 -71 -52 -6 -58 -5 -47 8 7 8 10 26 7
39 -6 22 -5 23 54 20 59 -4 229 13 239 23 14 14 -14 14 -118 0 -66 -9 -118
-11 -124 -6 -6 5 -34 12 -62 16 -41 5 -52 3 -57 -9 -7 -17 -45 -23 -192 -30
-89 -5 -98 -4 -81 9 11 8 40 16 65 17 l46 1 -39 4 c-25 3 -62 -4 -99 -17 -56
-21 -70 -22 -181 -14 -209 13 -623 9 -684 -8 l-52 -15 15 23 c8 13 15 25 15
28 0 2 -78 -29 -172 -70 l-173 -74 -9 50 c-11 59 -5 77 31 92 27 12 26 13 -27
16 -30 2 -70 0 -89 -3 -33 -6 -33 -7 -12 -21 29 -21 28 -48 -1 -40 -149 44
-218 55 -218 36 0 -11 -36 -35 -67 -45 -20 -6 -23 -3 -23 24 0 17 -3 31 -7 31
-5 0 -37 -9 -73 -20 -78 -24 -80 -24 -80 -5 0 25 -36 35 -127 35 -102 -1 -221
-21 -233 -41 -5 -7 -21 -14 -37 -15 -15 -1 -52 -9 -82 -18 -69 -20 -131 -21
-131 -2 0 8 6 17 13 20 17 7 -29 46 -55 46 -11 0 -33 -9 -49 -21 -99 -70 -351
-160 -395 -140 -16 7 -42 7 -85 0 -34 -5 -63 -8 -65 -6 -6 5 115 55 248 103
59 22 108 42 108 45 0 3 -11 12 -25 19 -33 18 -32 28 8 45 30 13 25 14 -86 15
-91 0 -119 -3 -123 -14 -3 -8 -13 -12 -25 -9 -11 3 -19 0 -19 -7 0 -8 21 -10
80 -4 44 3 80 4 80 0 0 -11 -100 -54 -142 -61 -21 -4 -38 -12 -38 -17 0 -6
-12 -8 -27 -5 -16 2 -64 2 -109 -2 -89 -7 -101 2 -61 46 l19 22 -93 -4 c-68
-3 -87 -2 -69 5 18 7 6 8 -40 3 -36 -4 -113 -8 -173 -8 -59 0 -107 -3 -107 -7
0 -4 -15 -7 -34 -6 -25 1 -36 7 -39 20 -3 10 -11 17 -17 16 -7 -2 -15 3 -17
10 -6 15 29 16 45 0 21 -21 24 -1 5 34 -10 18 -20 41 -23 52 -8 28 -106 33
-113 6 -2 -10 4 -31 14 -47 25 -38 24 -53 -6 -53 -20 0 -25 5 -25 23 0 13 -3
27 -7 31 -4 4 -13 25 -19 46 l-12 39 29 -6 c17 -3 35 0 44 7 11 9 19 10 26 3
11 -11 61 -5 57 7 -2 4 -23 51 -48 104 -36 77 -49 96 -66 96 -12 0 -32 9 -46
19 -29 24 -55 14 -40 -15 19 -37 43 -149 32 -152 -17 -6 -11 -22 9 -22 11 0
23 -4 26 -10 3 -5 -3 -10 -14 -10 -18 0 -20 -5 -17 -55 2 -34 9 -62 19 -73 9
-10 17 -23 17 -29 0 -6 13 -13 30 -16 24 -5 31 -14 40 -46 13 -51 27 -59 52
-33 l21 20 38 -45 c53 -61 52 -77 -6 -69 l-45 7 0 -70 c0 -88 -11 -91 -74 -19
-51 59 -70 59 -33 1 31 -51 37 -69 26 -80 -12 -12 6 -65 38 -111 13 -19 23
-40 23 -46 0 -6 4 -6 9 2 5 9 18 -18 37 -78 22 -71 33 -94 50 -100 52 -20 157
-150 148 -184 -5 -22 114 -297 193 -447 23 -42 44 -95 48 -117 5 -31 10 -39
23 -35 27 7 107 -53 192 -146 96 -103 131 -150 134 -185 5 -40 84 -134 171
-203 79 -62 140 -130 171 -193 18 -35 12 -46 -25 -52 -20 -2 -33 8 -68 52 -43
55 -166 189 -147 160 85 -124 293 -372 306 -364 7 5 8 2 3 -5 -4 -8 1 -22 14
-35 11 -11 46 -51 76 -88 31 -36 63 -69 72 -72 33 -13 27 7 -13 43 l-41 37 24
22 c14 12 30 19 40 15 11 -4 14 -3 9 6 -5 7 -13 10 -20 8 -6 -3 -12 3 -12 13
0 10 4 16 8 14 4 -3 8 -1 8 3 0 5 -14 17 -31 27 -29 17 -36 29 -54 85 -6 21
-5 23 11 17 14 -6 12 0 -8 21 -14 15 -53 65 -85 110 -32 44 -97 123 -144 175
-110 118 -136 151 -267 330 -66 90 -113 165 -121 193 -7 25 -18 48 -23 51 -6
4 -8 -2 -3 -17 10 -36 -42 52 -70 118 -14 32 -18 49 -10 38 39 -54 45 -58 25
-18 -11 23 -35 57 -53 75 -42 42 -108 161 -113 202 -2 26 -59 168 -109 271 -8
17 -19 55 -26 85 -19 87 -128 342 -155 363 -32 25 -30 43 6 51 18 3 30 12 30
21 0 11 11 15 43 15 88 0 353 -22 369 -31 26 -13 132 -11 308 7 88 9 183 13
221 9 36 -3 134 -6 217 -6 85 0 154 -4 157 -9 4 -6 -12 -10 -37 -11 l-43 -1
35 -13 c19 -7 46 -14 59 -14 20 -1 21 1 11 14 -11 13 -8 15 14 15 14 0 26 5
26 10 0 6 -5 10 -12 10 -8 0 -9 3 -2 10 5 5 23 9 39 9 140 -3 213 -6 222 -12
14 -9 273 22 303 37 16 8 37 9 60 4 19 -4 57 -5 83 -2 37 5 52 2 66 -10 15
-13 24 -14 46 -6 29 11 44 2 45 -26 0 -6 9 -19 21 -30 31 -28 64 -94 39 -79
-43 27 56 -123 140 -212 38 -39 84 -95 103 -125 50 -78 139 -170 252 -261 55
-44 128 -105 163 -135 34 -29 62 -51 62 -48 0 3 -41 53 -90 111 -50 58 -86
105 -81 105 5 0 13 -4 16 -10 3 -5 15 -15 27 -21 19 -10 20 -10 7 8 -8 11 -42
44 -77 72 -35 30 -61 59 -59 66 3 7 -27 41 -66 76 -39 35 -68 56 -64 46 22
-54 22 -53 4 -38 -9 7 -17 18 -17 23 0 5 -16 28 -35 51 -24 28 -35 51 -35 72
0 41 -40 102 -134 204 -70 76 -136 161 -136 175 0 10 47 7 75 -4 19 -7 25 -15
21 -26 -4 -11 -1 -14 12 -10 9 3 71 12 136 21 66 9 124 19 129 22 5 3 13 0 17
-7 6 -9 25 -10 83 -2 50 7 89 7 114 0 21 -5 225 -13 453 -18 228 -5 446 -12
484 -16 49 -4 71 -3 76 6 6 9 25 9 84 0 41 -6 81 -8 86 -5 14 9 62 -3 56 -14
-7 -11 334 -7 359 4 18 8 19 7 5 -9 -14 -18 -13 -18 19 -11 23 5 36 3 41 -5 6
-9 22 -10 56 -5 37 5 56 15 81 41 31 33 35 34 82 28 28 -4 71 -1 100 6 54 13
105 5 80 -12 -9 -6 64 -7 206 -2 121 4 282 6 357 5 115 -2 140 0 153 13 19 19
59 20 223 6 64 -5 171 -11 238 -13 113 -3 121 -2 116 15 -4 16 2 18 45 18 27
0 94 -7 149 -15 117 -18 177 -20 154 -5 -33 21 37 9 120 -21 47 -17 100 -35
119 -41 26 -7 31 -12 20 -19 -9 -6 2 -9 34 -9 35 0 47 4 47 15 0 15 37 35 66
35 8 0 14 -9 14 -19 0 -10 7 -22 16 -25 26 -10 123 -6 229 9 55 8 135 15 177
15 57 0 77 3 75 13 -2 13 3 13 313 4 165 -5 310 1 310 13 0 14 -47 28 -75 22
-22 -4 -27 -2 -23 9 5 12 -2 14 -28 11 -28 -3 -33 -1 -28 12 4 11 11 13 22 8
10 -5 47 -7 85 -6 68 2 93 -11 35 -19 -18 -2 31 -3 109 -2 78 1 140 -2 137 -7
-3 -4 -15 -8 -27 -8 -22 -1 -22 -1 -2 -12 24 -15 147 -16 351 -4 111 7 153 6
158 -3 5 -7 48 -11 127 -11 67 0 119 -3 117 -7 -24 -50 -33 -63 -42 -63 -6 -1
-23 -17 -38 -38 -16 -20 -55 -68 -89 -107 -33 -38 -68 -84 -77 -102 -27 -51
-236 -276 -379 -408 -74 -68 -180 -155 -236 -193 -56 -39 -128 -93 -160 -121
-38 -33 -67 -51 -84 -51 -35 0 -116 -62 -197 -153 -46 -51 -89 -87 -141 -116
-78 -45 -128 -53 -63 -10 37 24 51 59 24 59 -8 0 -47 -28 -88 -62 -40 -35 -85
-71 -98 -81 -25 -17 -24 -17 8 -1 42 19 50 13 20 -16 -37 -36 -231 -159 -241
-153 -5 3 -7 14 -4 24 8 28 -30 24 -94 -10 -30 -15 -92 -40 -139 -55 -47 -15
-93 -34 -102 -43 -26 -23 -90 -28 -126 -9 -35 18 -72 21 -72 6 0 -5 -8 -11
-17 -11 -10 -1 0 -5 21 -8 30 -5 43 -13 56 -36 24 -44 81 -45 196 -4 49 17
105 35 124 39 47 10 349 127 369 142 9 7 30 24 46 38 21 17 54 30 99 38 84 16
163 55 247 122 71 57 80 70 50 70 -12 0 -21 4 -21 9 0 10 53 54 105 87 28 18
29 18 22 0 -7 -18 -6 -18 15 -3 40 28 149 91 271 158 113 61 125 71 281 229
89 91 177 188 196 215 32 49 33 49 5 25 -24 -22 -26 -23 -17 -4 6 11 8 30 5
42 -4 16 9 36 52 82 54 56 85 74 85 50 0 -25 19 -3 80 90 36 55 70 100 76 100
31 0 113 128 128 196 7 31 7 31 86 37 43 3 99 11 124 18 33 8 54 8 77 0 47
-16 247 -13 356 5 68 12 101 13 117 6 31 -15 359 -32 595 -32 113 1 275 -4
362 -11 198 -14 337 -9 371 13 14 10 50 20 79 23 74 9 91 17 54 24 l-30 6 40
24 c32 19 48 22 84 17 56 -8 79 -26 33 -26 -18 0 -32 -4 -32 -9 0 -11 36 -21
78 -21 38 0 39 -6 9 -51 -12 -19 -33 -63 -46 -99 -79 -221 -268 -609 -434
-892 -48 -81 -87 -150 -87 -153 0 -3 9 -1 19 5 11 5 22 10 26 10 7 0 -61 -108
-81 -129 -19 -20 -28 -7 -14 21 11 22 10 22 -5 3 -8 -10 -23 -44 -32 -75 -9
-30 -28 -66 -41 -80 l-24 -25 6 27 c3 14 9 34 13 45 3 10 3 15 -1 12 -4 -4
-20 -42 -36 -85 -36 -94 -85 -170 -122 -185 -16 -6 -28 -16 -28 -21 0 -5 5 -6
10 -3 6 3 10 1 10 -5 0 -7 -6 -10 -14 -7 -9 4 -36 -23 -76 -74 -58 -75 -60
-79 -30 -64 35 18 34 14 -6 -42 -13 -17 -24 -39 -24 -47 0 -9 -4 -16 -9 -16
-5 0 -78 -75 -162 -168 -168 -184 -327 -350 -492 -514 -60 -60 -104 -108 -98
-108 18 0 12 -16 -16 -44 -17 -17 -30 -23 -36 -17 -14 14 -46 -1 -134 -62 -43
-30 -94 -62 -113 -72 -19 -10 -42 -25 -51 -35 -9 -9 -51 -45 -93 -80 -49 -40
-75 -69 -71 -77 4 -12 -2 -13 -25 -8 -26 6 -39 0 -83 -33 -92 -71 -218 -145
-455 -267 -132 -68 -226 -122 -220 -126 25 -16 -15 -37 -95 -50 -74 -12 -86
-17 -119 -51 -21 -21 -44 -38 -52 -38 -8 0 -19 -6 -23 -14 -8 -14 -362 -143
-658 -239 -363 -118 -664 -180 -942 -194 -73 -3 -136 -10 -139 -15 -3 -4 -16
-8 -30 -8 -18 0 -24 -5 -24 -21 0 -19 -3 -20 -111 -13 -69 4 -135 3 -177 -4
-37 -7 -107 -15 -157 -18 -63 -5 -83 -9 -65 -15 14 -4 21 -7 16 -8 -21 -2 23
-35 91 -67 40 -19 73 -39 73 -43 0 -5 17 -5 38 -1 21 4 110 5 198 2 157 -4
198 1 284 35 13 6 13 4 0 -11 -13 -17 -12 -17 21 -3 39 16 84 24 171 32 71 6
569 96 701 127 53 12 97 26 97 30 0 4 -11 10 -25 14 -51 13 -12 26 56 19 58
-6 70 -4 75 9 7 19 385 146 435 146 39 0 64 13 55 28 -8 14 31 35 50 28 7 -3
18 3 24 13 9 17 78 41 117 41 15 0 14 -4 -7 -20 l-25 -20 27 9 c51 19 173 84
193 103 11 11 110 70 220 130 259 141 610 376 591 395 -8 8 69 69 179 142 55
36 141 105 191 153 51 49 100 90 110 93 78 15 143 77 203 192 22 40 41 63 56
67 12 3 28 18 34 33 18 44 73 100 105 108 23 5 27 3 22 -10 -19 -51 119 87
206 206 31 42 79 96 107 120 28 24 51 47 51 52 0 22 -32 0 -87 -60 -65 -72
-90 -79 -53 -16 48 82 98 136 180 193 48 33 109 84 137 113 85 91 237 332 230
367 -1 8 -17 -11 -35 -42 -34 -58 -47 -73 -35 -40 17 48 105 221 128 252 26
33 27 34 21 8 -3 -14 -9 -34 -12 -45 -5 -17 15 13 57 82 16 25 19 27 19 9 0
-11 -30 -72 -66 -135 -86 -149 -96 -169 -86 -169 4 0 25 31 46 70 20 38 42 70
47 70 5 0 9 8 9 18 0 10 16 45 37 78 63 102 103 178 103 198 0 12 5 16 14 13
10 -4 18 6 27 31 13 41 31 68 22 32 -4 -16 -3 -21 5 -16 7 4 12 13 12 19 0 7
20 42 45 79 l44 67 -24 8 -25 8 29 62 c17 34 57 91 90 127 33 35 71 88 86 118
21 42 22 48 6 28 -40 -49 -21 5 34 98 31 51 58 107 61 125 5 30 5 31 -10 13
-24 -30 -28 -14 -7 27 10 21 24 76 31 123 9 61 18 92 32 106 21 21 51 95 67
168 7 33 6 42 -5 47 -20 8 -18 15 21 72 20 28 31 51 27 51 -5 0 -8 10 -7 23 1
12 3 28 4 35 0 6 8 12 17 12 11 0 14 6 9 21 -6 19 -4 21 14 16 14 -3 21 0 21
8 0 25 -12 45 -29 46 -11 0 -9 3 7 9 18 8 22 17 22 53 0 24 -5 48 -12 55 -8 8
-8 15 1 26 7 8 10 24 6 36 -5 16 -2 20 14 20 27 0 26 8 -4 36 -33 30 -32 46 3
42 25 -3 27 0 29 37 1 36 0 38 -13 20 -13 -18 -15 -18 -31 -2 -20 19 -20 19
31 38 40 14 43 20 53 89 3 19 15 43 27 52 l21 18 -25 1 c-14 1 -32 1 -40 0
-21 -3 18 24 49 34 18 5 20 9 10 16 -11 6 -10 9 4 15 20 7 23 24 3 24 -21 0
-40 27 -24 33 9 3 7 9 -7 21 -14 12 -16 16 -5 15 31 -3 40 2 40 20 0 11 -9 21
-22 25 -22 6 -22 7 -5 17 15 9 21 7 32 -8 14 -17 14 -17 15 3 0 12 -7 27 -15
34 -19 15 -9 33 15 27 13 -3 17 0 13 9 -3 8 1 14 11 14 20 0 20 19 1 44 -10
13 -12 33 -8 67 4 33 2 49 -6 49 -6 0 -11 7 -11 16 0 11 5 14 16 10 24 -9 11
17 -14 30 -31 15 -15 25 26 18 31 -6 34 -5 29 10 -4 10 -7 22 -7 27 0 5 -8 9
-17 10 -13 0 -14 2 -4 6 11 4 9 10 -8 22 -19 14 -21 21 -12 44 8 20 7 30 -5
42 -18 17 -34 20 -34 5 0 -18 -16 -10 -17 8 -1 15 6 19 33 20 20 1 32 -3 29
-8 -3 -6 1 -10 9 -10 20 0 21 14 2 29 -11 10 -12 19 -4 42 5 16 15 29 21 29 7
0 5 5 -3 10 -13 9 -13 11 0 20 8 5 10 10 4 10 -10 0 -23 35 -28 73 -1 5 -11
14 -24 21 -21 11 -22 14 -8 25 9 8 16 20 16 27 0 8 6 14 13 14 6 0 0 10 -16
21 -15 11 -25 25 -21 30 3 5 -6 9 -20 9 -14 0 -28 5 -31 10 -3 6 -17 7 -31 4
-14 -4 -24 -2 -24 4 0 15 41 26 49 14 15 -23 48 -22 72 4 l24 26 -21 16 c-12
10 -36 25 -53 34 -38 21 -39 33 -4 35 17 1 33 -6 41 -18 7 -10 18 -19 24 -19
7 0 7 4 -1 13 -8 10 -7 17 1 25 9 9 8 12 -5 12 -24 0 -42 49 -28 72 15 25 14
54 -4 71 -11 12 -12 16 -2 20 6 2 -14 10 -47 17 -68 16 -55 28 32 29 33 1 51
5 47 11 -3 6 -18 7 -33 4 -25 -6 -26 -5 -8 8 18 14 18 15 -5 22 -23 7 -23 8
-4 16 14 6 16 9 5 10 -8 1 -4 5 9 9 42 11 35 29 -19 48 -27 10 -48 23 -46 29
5 13 -20 29 -62 39 -19 4 -32 13 -32 22 0 12 7 14 38 8 20 -4 57 -9 82 -12 44
-4 44 -4 22 12 -17 13 -26 14 -36 6 -10 -9 -15 -7 -19 8 -5 22 10 31 49 31 14
0 23 4 20 9 -4 5 0 11 6 14 26 9 -49 30 -110 30 -51 0 -62 3 -60 16 4 20 65
43 101 36 15 -2 27 0 27 5 0 21 -2 25 -12 22 -6 -2 -8 4 -5 13 5 11 0 15 -16
15 -40 0 -68 12 -59 24 5 6 14 30 19 54 10 40 10 42 -12 42 -36 0 -85 21 -85
36 0 8 5 14 12 14 9 0 9 3 0 12 -6 6 -31 12 -56 12 -36 1 -42 -1 -33 -13z m52
-31 c3 -5 2 -10 -4 -10 -5 0 -13 5 -16 10 -3 6 -2 10 4 10 5 0 13 -4 16 -10z
m190 -520 c3 -5 -1 -10 -9 -10 -8 0 -18 5 -21 10 -3 6 1 10 9 10 8 0 18 -4 21
-10z m20 -768 c-3 -3 -11 0 -18 7 -9 10 -8 11 6 5 10 -3 15 -9 12 -12z m-93
-64 c-11 -11 -32 -3 -32 12 0 4 9 6 21 3 13 -4 17 -9 11 -15z m33 -108 c18 -8
17 -9 -7 -9 -15 -1 -30 4 -33 9 -7 12 12 12 40 0z m120 -130 c3 -5 1 -10 -4
-10 -6 0 -11 5 -11 10 0 6 2 10 4 10 3 0 8 -4 11 -10z m-52 -116 c9 -4 17 -10
17 -15 0 -14 -10 -11 -38 12 -15 12 -20 19 -12 15 8 -3 23 -9 33 -12z m-251
-826 c-9 -9 -15 -9 -24 0 -9 9 -7 12 12 12 19 0 21 -3 12 -12z m28 -49 c12 -8
10 -9 -7 -4 -24 7 -33 -10 -10 -18 6 -3 -3 -5 -21 -4 -18 0 -28 3 -21 7 6 4 8
13 5 19 -9 14 34 14 54 0z m-11980 -39 c0 -5 -2 -10 -4 -10 -3 0 -8 5 -11 10
-3 6 -1 10 4 10 6 0 11 -4 11 -10z m12005 -10 c8 -13 -25 -13 -45 0 -12 8 -9
10 12 10 15 0 30 -4 33 -10z m-11088 -156 c-3 -3 -12 -4 -19 -1 -8 3 -5 6 6 6
11 1 17 -2 13 -5z m7971 -16 c-2 -7 6 -13 17 -13 11 0 31 -5 45 -10 l25 -9
-30 -6 c-17 -4 -45 -1 -64 7 -45 17 -49 22 -31 33 21 14 40 12 38 -2z m-283
-33 c0 -5 -24 -10 -53 -11 -42 -3 -52 -1 -44 9 12 14 97 16 97 2z m509 -9 c-3
-8 -12 -12 -21 -9 -12 5 -12 7 -1 14 20 13 28 11 22 -5z m-924 -6 c0 -5 -5
-10 -11 -10 -5 0 -7 5 -4 10 3 6 8 10 11 10 2 0 4 -4 4 -10z m-960 -20 c0 -4
-11 -5 -25 -2 -14 2 -25 8 -25 12 0 4 11 5 25 2 14 -2 25 -8 25 -12z m-6763
-15 c32 -2 64 -4 71 -4 7 -1 10 -6 6 -12 -3 -6 -17 -9 -30 -6 -14 2 -27 0 -30
-4 -9 -15 -64 -11 -58 4 3 8 -5 13 -22 15 -33 2 -38 7 -29 22 5 8 10 8 20 0 7
-6 40 -13 72 -15z m843 15 c0 -5 -10 -10 -22 -10 -19 0 -20 2 -8 10 19 13 30
13 30 0z m3555 0 c13 -6 15 -9 5 -9 -8 0 -22 4 -30 9 -18 12 -2 12 25 0z
m3212 4 c-3 -3 -12 -4 -19 -1 -8 3 -5 6 6 6 11 1 17 -2 13 -5z m206 -5 c-5 -4
-24 -4 -43 1 l-35 9 43 -2 c23 0 39 -4 35 -8z m-2603 -24 c7 -8 8 -15 2 -15
-5 0 -15 7 -22 15 -7 8 -8 15 -2 15 5 0 15 -7 22 -15z m1677 9 c-3 -3 -12 -4
-19 -1 -8 3 -5 6 6 6 11 1 17 -2 13 -5z m1105 -26 c-7 -7 -12 -8 -12 -2 0 14
12 26 19 19 2 -3 -1 -11 -7 -17z m-2682 2 c8 -5 11 -12 8 -16 -10 -9 -38 3
-38 16 0 12 10 13 30 0z m950 0 c0 -5 -7 -7 -15 -4 -8 4 -15 8 -15 10 0 2 7 4
15 4 8 0 15 -4 15 -10z m1170 -2 c52 -17 61 -38 16 -38 -21 0 -36 6 -40 15 -3
8 -12 15 -20 15 -8 0 -18 5 -21 10 -8 14 17 13 65 -2z m710 2 c0 -5 -13 -10
-29 -10 -17 0 -33 5 -36 10 -4 6 8 10 29 10 20 0 36 -4 36 -10z m-7933 -23
c90 0 116 -16 31 -19 -29 -1 -64 -1 -78 0 -14 1 -38 2 -55 3 -16 0 -43 6 -60
12 l-30 12 35 6 c19 3 44 1 55 -4 10 -6 57 -10 102 -10z m7743 13 c0 -5 -7
-10 -16 -10 -8 0 -12 5 -9 10 3 6 10 10 16 10 5 0 9 -4 9 -10z m-623 -66 c-3
-3 -12 -4 -19 -1 -8 3 -5 6 6 6 11 1 17 -2 13 -5z m-6567 -2085 c0 -5 -9 -9
-20 -9 -19 0 -26 11 -14 23 8 8 34 -3 34 -14z m85 -59 c3 -5 -1 -10 -10 -10
-9 0 -13 -4 -10 -10 10 -16 -21 -12 -34 4 -10 12 -8 15 11 19 13 2 26 5 30 6
4 0 10 -3 13 -9z"/>
<path d="M3217 7373 c-36 -6 -29 -29 7 -25 14 1 26 -2 26 -8 0 -5 5 -10 11
-10 18 0 82 -33 100 -51 11 -11 26 -15 44 -11 18 3 23 7 14 13 -7 4 -17 5 -21
3 -4 -3 -8 0 -8 5 0 6 7 11 15 11 8 0 15 7 15 15 0 8 9 19 20 25 15 8 20 8 20
-3 0 -7 -5 -18 -12 -25 -9 -9 -7 -16 7 -32 16 -17 21 -18 34 -7 9 8 24 17 34
20 10 4 15 11 12 17 -8 12 1 13 23 1 11 -6 21 -4 29 4 10 11 2 17 -44 30 -42
12 -58 14 -63 5 -6 -9 -10 -8 -17 5 -8 14 -28 18 -114 20 -57 2 -117 1 -132
-2z m263 -83 c0 -5 -2 -10 -4 -10 -3 0 -8 5 -11 10 -3 6 -1 10 4 10 6 0 11 -4
11 -10z"/>
<path d="M4585 7366 c-139 -28 -214 -67 -299 -156 -63 -66 -104 -145 -138
-265 -22 -78 -23 -93 -23 -550 0 -454 1 -473 22 -548 35 -124 79 -205 147
-273 96 -96 211 -143 390 -158 71 -6 78 -6 66 8 -15 20 -6 20 56 5 57 -15 166
5 157 28 -4 11 0 13 21 7 39 -9 129 40 202 111 58 57 114 151 129 216 6 25 4
26 -47 32 -29 4 -76 7 -103 7 -60 0 -109 13 -131 34 -23 24 -32 20 -49 -21 -9
-21 -23 -45 -31 -54 -14 -15 -12 -18 17 -28 22 -8 36 -8 43 -1 7 7 1 10 -17
10 -15 0 -27 4 -27 9 0 8 23 6 60 -5 13 -5 13 -6 0 -15 -13 -8 -13 -10 0 -18
27 -18 -18 -25 -73 -12 -44 11 -58 10 -91 -4 -38 -16 -219 -28 -211 -14 3 4
-8 9 -23 12 -82 17 -152 113 -172 237 -13 85 -13 786 1 869 27 168 102 244
254 258 169 16 274 -69 290 -232 10 -98 13 -105 50 -121 41 -17 166 -18 215
-1 52 18 73 64 65 147 -24 241 -141 392 -360 466 -99 33 -278 42 -390 20z
m582 -1653 c-4 -3 -1 -13 5 -21 11 -13 6 -14 -36 -9 -57 7 -73 17 -28 17 18 0
32 5 32 10 0 6 8 10 17 10 9 0 13 -3 10 -7z m-527 -23 c0 -5 -4 -10 -10 -10
-5 0 -10 5 -10 10 0 6 5 10 10 10 6 0 10 -4 10 -10z m604 -21 c-8 -13 -43 3
-37 17 4 10 9 11 23 2 10 -7 17 -15 14 -19z m-509 -9 c4 -6 -5 -10 -19 -10
-14 0 -26 5 -26 10 0 6 9 10 19 10 11 0 23 -4 26 -10z m10 -30 c3 -5 -1 -10
-10 -10 -9 0 -13 5 -10 10 3 6 8 10 10 10 2 0 7 -4 10 -10z m278 3 c3 -5 -10
-8 -28 -8 -18 0 -37 3 -41 8 -4 4 9 7 29 7 20 0 38 -3 40 -7z m-172 -53 c5 0
9 -4 9 -10 0 -14 -13 -12 -36 6 -17 14 -17 15 -1 10 10 -3 23 -6 28 -6z"/>
<path d="M3125 7361 c-16 -3 -28 -11 -26 -16 1 -6 8 -8 15 -6 6 2 19 3 29 3 9
0 15 3 12 8 -3 4 1 11 7 13 17 7 0 6 -37 -2z"/>
<path d="M1620 7339 c-47 -19 -75 -57 -95 -127 -6 -20 -4 -23 12 -20 12 2 19
14 21 36 2 19 9 32 17 32 11 0 14 -9 11 -32 -5 -41 2 -53 20 -37 8 7 14 7 14
1 0 -5 16 -17 35 -26 37 -18 40 -23 26 -45 -7 -11 -13 -9 -30 8 -24 24 -41 27
-41 9 -1 -7 -9 -3 -20 10 -11 13 -21 18 -25 12 -3 -5 -17 -7 -30 -4 -21 5 -25
1 -34 -33 -8 -33 -59 -228 -262 -1013 -22 -85 -54 -207 -70 -270 -16 -63 -40
-155 -53 -205 -30 -113 -32 -158 -9 -176 11 -9 14 -10 9 -1 -5 9 2 12 26 11
18 -1 25 -3 16 -6 -10 -2 -18 -9 -18 -15 0 -6 42 -8 115 -6 128 3 140 9 156
74 23 89 24 84 -7 84 -22 0 -26 3 -14 10 8 5 23 7 33 4 9 -3 17 -2 17 2 0 3
16 73 35 155 19 82 35 151 35 153 0 2 -9 2 -20 -1 -26 -7 -110 6 -110 16 0 5
159 9 353 10 l352 2 59 -235 c60 -243 74 -274 116 -263 11 3 23 1 26 -4 8 -13
169 -11 199 3 32 14 41 48 28 102 -17 69 -331 1274 -363 1391 -17 61 -32 119
-34 130 -35 162 -59 222 -103 251 -24 17 -50 19 -198 21 -100 2 -180 -2 -195
-8z m446 -101 c5 -7 0 -9 -14 -6 -13 4 -22 1 -23 -5 0 -8 -2 -8 -6 1 -2 6 -9
10 -14 6 -5 -3 -9 -1 -9 4 0 13 58 13 66 0z m-246 -22 c0 -3 -4 -8 -10 -11 -5
-3 -10 -1 -10 4 0 6 5 11 10 11 6 0 10 -2 10 -4z m90 -26 c18 -26 19 -30 5
-30 -9 0 -14 4 -11 9 3 5 -1 14 -9 21 -14 12 -20 30 -11 30 3 0 14 -13 26 -30z
m-88 -27 c-6 -2 -10 -8 -7 -13 3 -4 -1 -10 -9 -13 -10 -4 -12 0 -9 14 3 10 13
19 22 18 10 0 11 -2 3 -6z m238 -43 c22 -9 20 -10 -15 -5 -22 2 -46 5 -52 5
-7 0 -13 4 -13 9 0 12 46 6 80 -9z m-220 0 c0 -5 -4 -10 -9 -10 -6 0 -13 5
-16 10 -3 6 1 10 9 10 9 0 16 -4 16 -10z m230 -48 c0 -10 -46 -10 -56 1 -4 4
7 7 24 7 18 0 32 -4 32 -8z m30 -26 c0 -11 -19 -15 -25 -6 -3 5 1 10 9 10 9 0
16 -2 16 -4z m-410 -16 c0 -5 -7 -10 -15 -10 -8 0 -15 5 -15 10 0 6 7 10 15
10 8 0 15 -4 15 -10z m149 -49 c30 -111 171 -712 171 -725 0 -14 -26 -16 -210
-16 -115 0 -210 2 -210 4 0 2 39 163 86 357 77 319 84 354 69 365 -9 7 -29 10
-46 7 -22 -3 -28 -1 -23 10 3 9 -6 18 -28 25 l-33 11 33 -5 c18 -3 48 -7 68
-8 19 -2 37 -6 40 -9 3 -3 14 3 25 14 25 25 47 14 58 -30z m36 -21 c3 -5 1
-10 -4 -10 -6 0 -11 5 -11 10 0 6 2 10 4 10 3 0 8 -4 11 -10z m50 -20 c3 -5 1
-10 -4 -10 -6 0 -11 5 -11 10 0 6 2 10 4 10 3 0 8 -4 11 -10z m-157 -725 c2
-1 -13 -6 -33 -9 -19 -4 -33 -11 -31 -15 5 -7 -142 -52 -166 -51 -15 0 -8 29
10 38 9 5 41 12 70 16 64 8 84 15 76 28 -5 8 64 1 74 -7z m292 -49 c0 -3 -4
-8 -10 -11 -5 -3 -10 -1 -10 4 0 6 5 11 10 11 6 0 10 -2 10 -4z m-593 -22 c-4
-4 -30 -8 -59 -10 l-53 -3 47 7 c26 5 50 11 54 15 4 4 10 5 12 2 3 -3 2 -8 -1
-11z m401 11 c-9 -9 -107 -12 -102 -3 3 4 28 8 56 8 28 0 49 -2 46 -5z m142
-5 c-20 -13 -33 -13 -25 0 3 6 14 10 23 10 15 0 15 -2 2 -10z m-65 -25 c-42
-18 -64 -22 -65 -10 0 6 16 13 37 16 57 9 61 9 28 -6z m-295 -15 c0 -5 -15
-10 -32 -10 -25 0 -29 3 -18 10 20 13 50 13 50 0z m-230 -39 c-12 -24 -29 -35
-38 -26 -4 4 4 15 17 26 29 24 34 24 21 0z m-5 -161 c3 -5 1 -10 -4 -10 -6 0
-11 5 -11 10 0 6 2 10 4 10 3 0 8 -4 11 -10z m-80 -30 c3 -5 2 -10 -4 -10 -5
0 -13 5 -16 10 -3 6 -2 10 4 10 5 0 13 -4 16 -10z m-78 -149 c4 0 2 -6 -4 -12
-12 -12 -77 -3 -69 9 3 6 48 8 73 3z m73 -116 c6 4 10 1 10 -4 0 -6 -4 -11 -9
-11 -5 0 -17 -3 -27 -7 -12 -4 -15 -3 -10 5 4 7 2 12 -3 12 -6 0 -11 9 -11 20
0 20 0 20 20 0 12 -12 25 -18 30 -15z m-64 -144 c-3 -5 -15 -7 -26 -4 -28 7
-25 13 6 13 14 0 23 -4 20 -9z"/>
<path d="M5591 7331 c-11 -11 -22 -39 -26 -63 -4 -24 -5 -357 -3 -741 3 -694
3 -699 24 -716 24 -19 28 -51 7 -51 -23 0 -10 -35 13 -38 15 -2 23 4 27 18 3
14 10 18 22 14 15 -6 15 -8 -1 -25 -15 -17 -15 -18 12 -25 16 -4 31 -11 35
-15 3 -5 19 -10 36 -12 18 -2 39 -9 47 -16 19 -16 46 -8 46 14 0 18 24 19 82
4 31 -8 60 -9 101 -2 57 10 58 10 102 -25 25 -19 45 -35 45 -36 0 0 -50 -2
-112 -4 -81 -1 -114 1 -120 10 -5 10 -12 10 -25 2 -14 -9 -28 -8 -58 3 -22 8
-67 19 -100 24 -33 5 -77 17 -98 26 -20 9 -40 13 -43 10 -12 -11 51 -110 94
-148 93 -82 192 -100 538 -99 l256 1 24 24 c22 22 24 32 24 125 0 129 -9 140
-109 140 -39 0 -73 -4 -76 -10 -3 -5 -12 -10 -18 -10 -8 0 -8 3 1 9 8 5 -56
10 -155 13 -190 5 -233 18 -272 81 -20 32 -21 48 -21 245 l0 211 235 3 c292 4
280 -3 280 147 0 149 16 141 -277 141 l-238 0 0 250 0 250 290 0 291 0 24 25
c23 22 25 32 25 120 0 88 -2 98 -25 120 l-24 25 -431 0 c-411 0 -431 -1 -449
-19z m116 -1367 c-3 -3 -12 -4 -19 -1 -8 3 -5 6 6 6 11 1 17 -2 13 -5z m164
-111 c13 -15 11 -16 -11 -10 -14 4 -32 7 -40 8 -10 0 -8 3 5 9 29 12 31 12 46
-7z m-211 -57 c0 -2 -7 -7 -16 -10 -8 -3 -12 -2 -9 4 6 10 25 14 25 6z m330
-68 c0 -4 -9 -8 -20 -8 -11 0 -20 4 -20 8 0 4 9 8 20 8 11 0 20 -4 20 -8z
m-70 -13 c0 -2 -6 -5 -13 -8 -8 -3 -14 1 -14 8 0 7 6 11 14 8 7 -3 13 -6 13
-8z m300 -12 c2 -2 -2 -8 -10 -13 -11 -7 -8 -10 13 -10 16 0 26 4 22 10 -4 6
13 10 44 10 27 0 53 -5 57 -11 5 -8 -4 -10 -30 -7 -42 5 -49 -9 -8 -18 45 -10
52 -13 52 -24 0 -7 -6 -8 -19 0 -11 5 -51 10 -89 10 l-70 0 -4 35 c-4 32 -2
34 17 29 11 -4 22 -8 25 -11z m-63 -39 c-3 -3 -12 -4 -19 -1 -8 3 -5 6 6 6 11
1 17 -2 13 -5z m-47 -119 c14 -8 19 -14 10 -14 -8 0 -24 6 -34 14 -25 19 -9
19 24 0z m-300 -21 c0 -2 -7 -4 -15 -4 -8 0 -15 4 -15 10 0 5 7 7 15 4 8 -4
15 -8 15 -10z m598 -26 c7 -7 24 -13 40 -14 48 -3 52 -4 52 -15 0 -8 -21 -10
-65 -7 -36 2 -65 1 -65 -2 0 -4 -36 -7 -80 -7 -44 0 -77 4 -74 8 3 5 16 9 30
9 14 0 22 4 19 10 -4 6 18 8 60 5 55 -3 66 -1 61 11 -7 17 6 18 22 2z"/>
<path d="M6769 7331 l-24 -19 -3 -812 c-2 -723 -1 -812 13 -806 9 3 15 0 15
-9 0 -20 19 -19 26 0 4 8 16 15 28 14 l21 0 -21 -9 c-27 -11 -26 -53 2 -59 10
-1 26 -9 34 -16 21 -18 142 -25 135 -7 -6 15 -3 15 31 -3 l29 -15 5 188 5 187
200 6 c215 7 244 12 347 66 130 68 220 194 254 354 22 106 15 518 -10 599 -60
187 -189 305 -379 344 -60 13 -142 16 -380 16 -285 0 -306 -1 -328 -19z m616
-282 c63 -16 120 -68 140 -129 14 -41 16 -87 13 -282 l-3 -233 -27 -47 c-21
-34 -41 -53 -80 -72 -49 -25 -60 -26 -210 -26 l-158 0 0 393 c0 217 3 397 7
400 11 11 271 8 318 -4z m-408 -1239 c24 -18 24 -20 5 -20 -11 0 -30 9 -43 20
-21 17 -22 19 -6 20 11 0 30 -9 44 -20z"/>
<path d="M8049 7331 c-23 -18 -24 -26 -24 -126 0 -150 -8 -145 236 -145 l189
0 0 -700 c0 -538 3 -700 12 -700 9 0 9 -3 0 -12 -18 -18 -15 -78 4 -78 8 0 12
4 9 10 -3 6 1 7 9 4 22 -8 20 -13 -9 -24 -31 -12 -34 -57 -6 -91 22 -28 87
-32 105 -7 8 11 17 13 35 7 12 -5 27 -6 32 -3 6 3 21 -2 35 -11 14 -9 29 -14
32 -10 4 3 0 10 -8 15 -8 6 -10 10 -5 10 6 0 16 -5 22 -11 8 -8 17 -6 32 7 19
17 21 29 21 129 l0 110 -41 2 c-64 2 -74 23 -11 23 l52 0 0 130 c0 111 -2 129
-15 124 -8 -4 -15 -1 -15 5 0 6 7 11 15 11 13 0 15 66 15 530 l0 530 190 0
c189 0 191 0 215 25 23 22 25 32 25 120 0 88 -2 98 -25 120 l-24 25 -539 0
c-517 0 -541 -1 -563 -19z m471 -1665 c0 -3 -4 -8 -10 -11 -5 -3 -10 -1 -10 4
0 6 5 11 10 11 6 0 10 -2 10 -4z m40 -76 c0 -5 -12 -10 -27 -9 l-28 1 25 8
c14 4 26 8 28 9 1 1 2 -3 2 -9z m-40 -34 c0 -2 -7 -7 -16 -10 -8 -3 -12 -2 -9
4 6 10 25 14 25 6z"/>
<path d="M9410 7330 c-18 -18 -20 -33 -20 -164 l0 -143 44 -13 c55 -15 70 -40
24 -40 -17 0 -40 7 -50 17 -16 14 -18 14 -18 0 0 -8 6 -18 13 -20 10 -4 10 -6
0 -6 -10 -1 -13 -85 -13 -386 l0 -385 41 0 c28 0 38 4 33 12 -5 7 -3 8 6 3 10
-6 9 -11 -6 -22 -10 -7 -24 -11 -31 -9 -7 3 -20 3 -28 0 -12 -5 -15 -32 -15
-154 l0 -149 31 9 c26 8 30 7 25 -6 -3 -9 -6 -18 -6 -20 0 -2 -11 -4 -25 -4
-14 0 -25 -5 -25 -10 0 -7 13 -8 36 -4 29 5 36 4 32 -7 -3 -8 -18 -16 -34 -19
-26 -5 -29 -9 -26 -40 5 -50 38 -132 72 -179 36 -49 129 -113 165 -113 14 0
25 -4 25 -9 0 -13 88 -9 144 7 42 12 47 12 36 -1 -7 -8 -23 -15 -36 -15 -12 0
-26 -4 -29 -10 -9 -15 68 -12 84 3 9 7 12 8 7 0 -4 -8 52 -11 219 -12 224 -1
224 -1 252 23 24 22 26 27 16 45 -8 13 -9 22 -3 26 6 3 10 39 10 79 0 116 14
110 -277 116 -382 9 -377 4 -374 402 l1 137 235 3 c292 4 280 -3 280 147 0
149 16 141 -277 141 l-238 0 0 125 0 125 -34 0 c-19 0 -38 5 -41 10 -3 6 -11
10 -16 10 -6 0 -8 -4 -4 -9 13 -22 -15 -19 -39 4 -15 13 -51 31 -80 39 -53 13
-114 46 -87 46 8 0 11 6 7 15 -3 8 -2 15 3 15 16 0 126 -38 156 -54 17 -9 38
-16 47 -16 10 0 33 -9 53 -20 l35 -20 0 115 0 115 184 0 c158 0 185 2 190 16
3 8 10 12 16 9 6 -4 8 -10 5 -15 -3 -5 38 -9 90 -9 89 -1 98 1 121 24 21 21
24 33 24 91 0 59 -2 65 -17 59 -24 -10 -92 -6 -115 6 -10 5 -18 16 -18 24 0
20 45 19 100 0 53 -19 50 -19 50 10 0 13 -11 36 -25 50 l-26 25 -429 0 c-417
0 -431 -1 -450 -20z m890 -10 c0 -5 -2 -10 -4 -10 -3 0 -8 5 -11 10 -3 6 -1
10 4 10 6 0 11 -4 11 -10z m-130 -30 c0 -5 -7 -7 -15 -4 -8 4 -15 8 -15 10 0
2 7 4 15 4 8 0 15 -4 15 -10z m-485 -40 c-3 -5 -10 -10 -16 -10 -5 0 -9 5 -9
10 0 6 7 10 16 10 8 0 12 -4 9 -10z m226 -80 c5 0 9 -4 9 -10 0 -5 -11 -10
-25 -10 -16 0 -25 6 -25 16 0 11 5 14 16 10 9 -3 20 -6 25 -6z m-361 -120 c0
-5 -4 -10 -10 -10 -5 0 -10 5 -10 10 0 6 5 10 10 10 6 0 10 -4 10 -10z m77
-16 c-3 -3 -12 -4 -19 -1 -8 3 -5 6 6 6 11 1 17 -2 13 -5z m-7 -834 c-8 -5
-19 -10 -25 -10 -5 0 -3 5 5 10 8 5 20 10 25 10 6 0 3 -5 -5 -10z m-45 -20
c-8 -14 -77 -42 -84 -35 -7 8 20 25 41 25 9 0 20 5 23 10 3 6 11 10 16 10 6 0
7 -5 4 -10z m-29 -229 c5 1 20 -2 33 -8 l25 -10 -34 -11 c-18 -7 -36 -10 -38
-7 -3 3 1 5 9 6 8 1 -4 7 -26 14 -39 13 -40 13 -15 23 15 6 27 6 31 0 3 -5 10
-8 15 -7z m134 -25 c0 -2 -13 -9 -30 -15 -16 -5 -30 -6 -30 -1 0 5 8 11 18 13
24 7 42 8 42 3z m-70 -21 c0 -2 -9 -9 -20 -15 -16 -9 -20 -8 -20 5 0 8 9 15
20 15 11 0 20 -2 20 -5z m-88 -47 c-7 -7 -12 -8 -12 -2 0 14 12 26 19 19 2 -3
-1 -11 -7 -17z m-2 -103 c-28 -16 -70 -21 -54 -6 9 9 38 18 64 19 8 1 4 -5
-10 -13z m47 -80 c-4 -8 -12 -15 -19 -14 -10 0 -10 2 0 6 6 2 12 12 12 21 0 8
3 13 6 9 4 -3 4 -13 1 -22z m593 -65 c0 -5 -4 -10 -9 -10 -6 0 -13 5 -16 10
-3 6 1 10 9 10 9 0 16 -4 16 -10z m-161 -86 c5 -5 -30 -33 -40 -34 -4 0 -6 11
-5 25 1 20 5 24 21 19 11 -4 22 -8 24 -10z m-124 -44 c3 -5 1 -10 -4 -10 -6 0
-11 5 -11 10 0 6 2 10 4 10 3 0 8 -4 11 -10z"/>
<path d="M10593 7333 c-12 -10 -24 -30 -27 -44 -7 -31 6 -39 62 -39 42 0 104
-20 115 -37 4 -7 18 -13 29 -13 27 0 128 -33 128 -42 0 -8 -28 -4 -95 12 -27
6 -59 13 -69 16 -11 2 -22 8 -25 13 -3 5 -26 14 -51 21 -25 6 -53 14 -64 17
-12 3 -16 1 -12 -6 4 -6 27 -16 52 -22 68 -17 62 -29 -11 -23 l-66 4 3 -27 c3
-25 9 -29 63 -41 100 -22 103 -23 109 -47 4 -14 16 -25 31 -29 14 -4 23 -11
19 -17 -3 -6 -13 -7 -23 -3 -9 3 -33 10 -54 14 -30 6 -37 5 -33 -6 3 -8 -1
-14 -10 -14 -8 0 -13 4 -10 9 3 4 -7 14 -22 20 -18 9 -28 9 -30 2 -2 -6 -12
-11 -23 -11 -17 0 -19 -8 -19 -101 0 -85 3 -104 18 -115 16 -13 16 -13 0 -14
-16 0 -18 -10 -18 -75 0 -53 4 -75 13 -75 9 0 9 -2 -1 -8 -10 -7 -12 -127 -10
-586 l3 -578 28 -24 c28 -24 29 -24 253 -24 134 1 224 5 224 10 0 6 -11 10
-24 10 -13 0 -45 12 -71 26 -26 15 -63 28 -82 30 -37 3 -63 19 -63 39 0 8 -6
16 -12 18 -7 3 -4 6 6 6 11 1 28 -7 38 -16 15 -13 21 -14 27 -5 6 10 11 9 21
-3 7 -8 24 -15 39 -15 15 0 37 -7 50 -16 23 -17 152 -56 183 -56 9 1 19 -5 21
-12 4 -10 20 -11 68 -4 98 13 144 27 130 41 -20 20 -12 25 33 20 46 -6 64 3
139 61 83 65 159 218 187 374 11 65 7 87 -16 78 -19 -7 -110 21 -130 42 -18
18 -85 42 -118 42 -11 0 -28 7 -38 17 -17 15 -18 14 -18 -38 0 -30 4 -59 8
-65 16 -23 142 -68 128 -45 -4 6 -16 11 -27 11 -10 0 -19 4 -19 8 0 14 58 1
64 -13 2 -7 -3 -16 -12 -20 -14 -5 -14 -7 -2 -15 26 -16 -33 -12 -75 5 -53 23
-69 13 -94 -55 -12 -33 -26 -62 -32 -66 -6 -3 -3 -12 8 -20 17 -14 16 -15 -5
-9 -17 5 -30 1 -45 -14 -49 -45 -93 -54 -274 -59 l-173 -4 -1 598 c-1 330 -1
605 0 612 1 6 -5 12 -14 12 -8 0 -15 -4 -15 -9 0 -5 -16 -1 -35 7 -19 9 -35
20 -35 24 0 4 -7 5 -15 2 -8 -4 -15 -1 -15 6 0 9 15 11 51 8 47 -5 50 -4 45
15 -4 15 -2 17 7 8 17 -17 29 -13 23 7 -13 40 2 44 185 40 164 -3 178 -5 224
-28 67 -34 120 -112 134 -196 6 -34 11 -112 12 -173 0 -106 2 -113 22 -121 21
-8 21 -9 -3 -10 -23 -1 -24 -2 -7 -14 12 -10 15 -16 7 -21 -8 -5 -8 -11 1 -21
10 -13 15 -12 35 1 20 13 24 13 31 0 5 -8 38 -25 73 -39 36 -13 64 -27 63 -30
-2 -3 -3 -13 -3 -21 0 -21 -24 -19 -45 5 -10 11 -28 20 -39 20 -12 0 -31 7
-44 15 -20 14 -21 14 -16 0 7 -18 4 -18 -30 -5 -14 5 -26 16 -26 25 0 8 -4 15
-10 15 -6 0 -10 -41 -10 -104 l0 -104 51 -15 c28 -9 57 -13 63 -11 7 3 26 -1
42 -7 16 -7 35 -11 43 -10 7 1 20 0 29 -4 14 -5 14 -7 2 -15 -12 -8 -11 -10 6
-10 11 0 24 -4 30 -9 5 -5 24 -12 42 -16 l33 -7 -3 39 c-2 26 -7 37 -17 35 -8
-2 -21 0 -30 4 -9 3 -32 7 -51 8 -22 1 -34 6 -33 13 2 7 -12 17 -30 22 -26 8
-22 9 23 4 30 -3 60 -10 66 -14 14 -11 64 -8 57 4 -2 4 -13 5 -24 2 -11 -4
-19 -2 -19 6 0 8 10 9 31 5 l32 -6 -6 267 c-4 148 -9 282 -13 298 -6 33 -55
70 -86 66 -10 -1 -18 1 -18 4 0 14 30 35 48 35 47 0 -32 99 -81 101 -37 2 -41
3 -74 23 l-31 19 36 20 36 19 21 -25 c20 -24 75 -45 75 -28 0 5 -20 36 -45 70
-35 47 -51 61 -71 61 -14 0 -23 -4 -20 -8 2 -4 -11 -6 -30 -4 -19 2 -34 8 -34
13 0 5 -7 9 -16 9 -16 0 -44 23 -44 35 0 9 95 -1 111 -11 8 -4 9 -3 5 5 -11
18 -115 67 -182 87 -49 14 -115 17 -405 21 -321 3 -348 2 -366 -14z m505 -30
c24 -8 41 -18 38 -21 -8 -8 -126 30 -126 40 0 10 21 6 88 -19z m158 9 c-10 -2
-22 0 -28 6 -6 6 0 7 19 4 21 -5 23 -7 9 -10z m-402 -1 c12 -5 16 -10 9 -14
-11 -7 -63 8 -63 18 0 7 31 5 54 -4z m406 -61 c9 -5 1 -8 -21 -7 -22 0 -36 6
-36 14 0 13 24 10 57 -7z m139 -46 c-8 -10 -8 -14 0 -14 6 0 11 -4 11 -10 0
-5 -9 -10 -19 -10 -22 0 -40 20 -19 20 8 1 7 6 -5 14 -18 14 -18 14 0 18 30 7
45 -2 32 -18z m-359 -76 c0 -4 -7 -8 -15 -8 -8 0 -15 -4 -15 -10 0 -5 -9 -10
-20 -10 -11 0 -20 4 -20 8 0 4 -14 13 -31 19 -17 7 -28 16 -25 21 6 10 126 -8
126 -20z m235 2 c16 -7 11 -9 -20 -9 -22 0 -49 4 -60 9 -16 7 -11 9 20 9 22 0
49 -4 60 -9z m211 -46 c19 -15 19 -16 -1 -8 -11 4 -28 7 -37 8 -10 0 -18 4
-18 8 0 14 35 9 56 -8z m-825 -92 c-7 -2 -18 1 -23 6 -8 8 -4 9 13 5 13 -4 18
-8 10 -11z m79 -2 c12 -8 9 -10 -12 -10 -15 0 -30 5 -33 10 -8 13 25 13 45 0z
m957 -6 c-3 -3 -12 -4 -19 -1 -8 3 -5 6 6 6 11 1 17 -2 13 -5z m-233 -24 c-7
-7 -19 -7 -35 -1 -23 9 -22 10 11 10 23 1 31 -2 24 -9z m93 -27 c-7 -6 -46 10
-41 18 3 5 14 3 24 -3 11 -7 18 -13 17 -15z m-952 -253 c10 -11 16 -20 13 -20
-3 0 -13 9 -23 20 -10 11 -16 20 -13 20 3 0 13 -9 23 -20z m960 -390 c19 -8
19 -9 -2 -9 -12 -1 -25 4 -28 9 -7 12 2 12 30 0z m110 0 c7 -12 -12 -12 -40 0
-18 8 -17 9 7 9 15 1 30 -3 33 -9z m39 -381 c-3 -6 0 -16 7 -21 9 -6 1 -7 -26
-3 -72 12 -68 20 18 34 5 0 5 -4 1 -10z m-227 -45 c-3 -3 -12 -4 -19 -1 -8 3
-5 6 6 6 11 1 17 -2 13 -5z m77 -17 c16 -12 14 -13 -18 -9 -20 2 -39 8 -42 13
-8 14 40 11 60 -4z m-810 -76 c3 -5 22 -12 41 -15 26 -5 35 -12 35 -26 0 -24
1 -24 -37 -5 -34 17 -72 55 -55 55 6 0 13 -4 16 -9z m56 -91 c0 -5 -2 -10 -4
-10 -3 0 -8 5 -11 10 -3 6 -1 10 4 10 6 0 11 -4 11 -10z m528 -15 c7 -7 -33
-6 -52 1 -9 3 -16 10 -16 14 0 8 58 -4 68 -15z m211 8 c28 -9 51 -20 51 -25 0
-4 -1 -8 -3 -8 -12 0 -104 34 -111 41 -15 14 5 11 63 -8z m-909 -13 c0 -5 -5
-10 -11 -10 -5 0 -7 5 -4 10 3 6 8 10 11 10 2 0 4 -4 4 -10z m373 -20 c16 -13
52 -24 98 -29 46 -6 82 -17 100 -30 16 -12 38 -21 51 -21 32 0 130 -39 100
-40 -40 0 -164 32 -196 51 -16 10 -33 16 -37 13 -4 -2 -10 0 -14 6 -3 5 -21
10 -38 9 l-32 0 30 -14 c17 -8 44 -17 60 -20 29 -7 30 -7 7 -16 -13 -5 -34 -6
-46 -3 -12 3 -29 6 -37 8 -8 1 -25 8 -39 16 -13 7 -35 13 -49 14 -13 1 -26 7
-28 13 -4 10 7 11 41 7 57 -8 59 1 6 22 -22 9 -37 20 -34 25 9 15 30 10 57
-11z m-208 -18 c71 -10 53 -24 -37 -28 -66 -2 -78 0 -94 17 -25 27 -4 40 45
27 20 -5 59 -12 86 -16z m111 -22 c9 0 13 -4 10 -9 -7 -11 -44 -3 -53 12 -4 7
0 8 11 4 10 -4 24 -7 32 -7z"/>
<path d="M12546 7341 c-4 -5 -2 -12 3 -15 5 -4 12 -2 15 3 4 5 2 12 -3 15 -5
4 -12 2 -15 -3z"/>
<path d="M2899 7256 c-81 -63 -171 -206 -156 -249 2 -6 -2 -16 -10 -22 -32
-24 -45 -151 -50 -514 -7 -484 6 -603 87 -767 70 -143 183 -231 348 -271 93
-22 296 -22 382 1 247 66 399 260 400 509 0 62 -3 71 -29 98 -29 28 -32 29
-136 29 -58 0 -115 -4 -125 -10 -23 -12 -40 -61 -40 -115 0 -93 -51 -179 -126
-216 -56 -26 -162 -31 -237 -10 -67 19 -130 78 -159 149 -22 56 -23 65 -26
492 -4 477 0 518 50 610 26 47 39 60 87 83 l56 27 -52 0 c-54 0 -67 12 -42 37
7 7 9 19 5 29 -6 15 -8 15 -24 1 -19 -17 -77 -14 -114 5 -27 13 -22 29 7 22
16 -4 25 -2 25 5 0 11 18 9 74 -6 11 -3 16 -1 12 6 -4 5 -22 13 -41 17 -20 3
-38 10 -40 15 -3 4 -12 6 -20 2 -9 -3 -15 1 -15 11 0 14 18 21 43 17 4 0 7 3
7 8 0 5 -16 15 -35 21 -19 6 -35 16 -35 21 0 17 -14 9 -71 -35z m-59 -131 c-7
-9 -15 -13 -19 -10 -3 3 1 10 9 15 21 14 24 12 10 -5z m75 -5 c-3 -5 -13 -10
-21 -10 -8 0 -14 5 -14 10 0 6 9 10 21 10 11 0 17 -4 14 -10z m73 -22 c-3 -7
-10 -14 -16 -14 -7 -1 -16 -2 -22 -3 -5 0 -10 -9 -10 -18 0 -15 -2 -14 -14 3
-13 16 -13 19 0 22 8 2 14 8 14 13 0 5 12 9 26 9 16 0 24 -5 22 -12z m40 -124
c12 -8 22 -19 22 -24 0 -13 -25 -6 -44 12 -30 30 -15 38 22 12z"/>
<path d="M3600 7220 c0 -5 -7 -10 -15 -10 -8 0 -15 -5 -15 -11 0 -6 6 -9 14
-6 8 3 20 -1 26 -9 7 -8 9 -14 5 -14 -4 0 -2 -7 5 -15 11 -13 9 -15 -13 -15
-13 0 -30 7 -37 15 -15 18 -40 20 -40 2 0 -7 -10 -13 -22 -12 -31 0 -39 -19
-10 -23 12 -2 22 -8 22 -13 0 -11 -33 -12 -44 -2 -3 4 -14 8 -22 9 -33 5 -44
13 -37 30 4 12 3 15 -5 10 -7 -4 -12 -2 -12 3 0 17 -25 13 -44 -8 -11 -12 -26
-17 -44 -14 -18 3 -23 2 -14 -5 7 -5 12 -15 10 -22 -2 -10 12 -16 47 -21 28
-3 69 -16 92 -27 31 -16 43 -18 47 -9 5 9 7 9 12 0 3 -7 12 -13 19 -13 7 0 15
-7 19 -15 3 -9 0 -15 -10 -15 -12 0 -10 -8 7 -42 13 -26 25 -75 30 -122 11
-108 22 -118 131 -124 170 -9 205 21 195 168 -3 47 -13 104 -21 128 -21 59
-47 112 -55 112 -3 0 -15 -16 -25 -35 -27 -49 -53 -72 -68 -57 -9 9 -8 12 5
12 10 0 14 5 11 15 -3 8 5 25 20 38 22 21 24 26 10 31 -9 3 -21 3 -27 -1 -34
-21 -112 7 -104 37 3 10 -4 28 -15 39 -21 23 -28 26 -28 11z m5 -110 c3 -5 2
-10 -3 -10 -5 0 -24 -3 -41 -6 -26 -6 -30 -4 -25 10 7 18 59 22 69 6z m35 -16
c0 -8 -4 -12 -10 -9 -5 3 -10 13 -10 21 0 8 5 12 10 9 6 -3 10 -13 10 -21z
m35 -35 c0 -8 -6 -13 -12 -11 -7 1 -13 -2 -13 -8 0 -5 -4 -10 -10 -10 -14 0
-13 23 2 38 15 15 33 10 33 -9z m-58 -54 c8 -9 13 -19 10 -22 -6 -5 -37 21
-37 31 0 10 11 6 27 -9z m163 -15 c0 -5 -13 -10 -30 -10 -16 0 -30 -3 -30 -7
0 -5 -14 -9 -30 -10 -35 -3 -41 14 -7 21 12 3 31 7 42 9 37 8 55 7 55 -3z"/>
<path d="M10567 7074 c3 -8 12 -13 20 -10 8 3 17 6 19 6 3 0 2 5 -1 10 -11 17
-45 12 -38 -6z"/>
<path d="M12684 6995 c31 -29 36 -30 36 -12 0 8 -11 19 -25 25 -38 18 -41 15
-11 -13z"/>
<path d="M12670 6965 c-8 -9 -8 -15 -2 -15 12 0 26 19 19 26 -2 2 -10 -2 -17
-11z"/>
<path d="M12620 6930 c0 -5 9 -10 20 -10 11 0 20 5 20 10 0 6 -9 10 -20 10
-11 0 -20 -4 -20 -10z"/>
<path d="M12680 6910 c0 -5 9 -10 21 -10 11 0 17 5 14 10 -3 6 -13 10 -21 10
-8 0 -14 -4 -14 -10z"/>
<path d="M12660 6740 c0 -5 7 -10 15 -10 8 0 15 5 15 10 0 6 -7 10 -15 10 -8
0 -15 -4 -15 -10z"/>
<path d="M11440 6181 c0 -14 10 -21 36 -26 45 -8 52 -3 19 15 -14 7 -25 17
-25 22 0 4 -7 8 -15 8 -8 0 -15 -8 -15 -19z"/>
<path d="M12750 6080 c-22 -6 -23 -8 -7 -15 12 -5 24 -2 35 9 17 17 12 18 -28
6z"/>
<path d="M5029 6044 c-29 -31 -13 -52 33 -47 25 3 29 2 18 -6 -8 -6 -10 -11
-5 -12 6 0 19 -3 30 -5 42 -10 71 -16 108 -21 31 -4 37 -8 32 -23 -7 -22 8
-32 47 -35 40 -4 44 11 5 26 l-32 12 35 6 c26 5 35 11 35 26 0 11 -10 24 -22
30 -24 10 -32 27 -10 23 6 -2 12 4 12 12 0 27 -45 38 -155 38 -101 0 -110 -1
-131 -24z m71 -4 c-19 -12 -40 -13 -40 -1 0 9 40 20 50 13 2 -2 -2 -7 -10 -12z
m120 -40 c0 -5 -2 -10 -4 -10 -3 0 -8 5 -11 10 -3 6 -1 10 4 10 6 0 11 -4 11
-10z"/>
<path d="M6740 5550 c0 -51 22 -96 52 -104 13 -3 67 -6 120 -6 86 0 100 2 122
23 18 16 26 34 28 67 3 44 2 45 -30 48 -18 2 -32 -1 -32 -8 0 -7 -6 -8 -18 -1
-10 5 -52 6 -98 2 -60 -5 -84 -3 -93 6 -6 7 -21 13 -31 13 -17 0 -20 -7 -20
-40z"/>
<path d="M220 5451 c0 -4 12 -13 26 -20 20 -9 25 -9 22 0 -5 14 -48 32 -48 20z"/>
<path d="M140 5429 c0 -11 6 -26 13 -32 16 -16 47 -21 47 -7 0 5 -5 10 -11 10
-5 0 -8 4 -5 9 10 16 -5 41 -25 41 -13 0 -19 -7 -19 -21z"/>
<path d="M180 5314 c6 -14 10 -47 10 -73 0 -72 10 -110 31 -116 11 -4 19 -13
19 -21 0 -8 5 -14 11 -14 5 0 7 -4 4 -10 -4 -6 6 -10 23 -10 16 0 32 -3 36 -7
3 -4 15 -7 26 -8 14 -1 19 3 16 14 -13 43 -25 101 -31 145 -7 52 -23 86 -40
86 -5 0 -22 6 -36 14 -14 7 -37 16 -52 20 -25 6 -26 5 -17 -20z"/>
<path d="M236 5025 c-8 -23 24 -79 49 -83 10 -2 22 3 27 12 11 19 29 21 26 4
-2 -7 9 -14 23 -16 26 -3 26 -3 16 42 -9 39 -14 45 -36 45 -14 0 -42 3 -62 6
-29 6 -38 3 -43 -10z"/>
<path d="M9855 4610 c-3 -5 1 -10 9 -10 9 0 16 5 16 10 0 6 -4 10 -9 10 -6 0
-13 -4 -16 -10z"/>
<path d="M7776 4600 c6 -6 30 -14 53 -17 28 -4 42 -11 46 -24 6 -19 45 -27 45
-9 0 6 12 11 28 11 17 1 20 3 9 6 -9 2 -15 8 -12 13 3 5 -25 11 -62 15 -38 3
-79 8 -93 11 -19 4 -22 3 -14 -6z"/>
<path d="M9598 4603 c7 -3 16 -2 19 1 4 3 -2 6 -13 5 -11 0 -14 -3 -6 -6z"/>
<path d="M7600 4590 c8 -5 22 -10 30 -10 13 0 13 1 0 10 -8 5 -22 10 -30 10
-13 0 -13 -1 0 -10z"/>
<path d="M9548 4593 c6 -2 18 -2 25 0 6 3 1 5 -13 5 -14 0 -19 -2 -12 -5z"/>
<path d="M10640 4580 c0 -13 11 -13 30 0 12 8 11 10 -7 10 -13 0 -23 -4 -23
-10z"/>
<path d="M1901 4546 c-20 -11 -21 -14 -6 -19 25 -10 63 -8 70 3 3 6 15 10 26
10 11 0 17 5 14 10 -9 14 -76 12 -104 -4z"/>
<path d="M1525 4530 c3 -5 17 -10 30 -10 13 0 25 -5 27 -11 2 -6 12 -7 27 -1
24 9 24 9 -9 20 -41 15 -83 16 -75 2z"/>
<path d="M1120 4520 c-12 -8 -12 -10 5 -9 11 0 38 4 60 8 l40 9 -45 1 c-25 0
-52 -4 -60 -9z"/>
<path d="M3136 4521 l-60 -6 26 -29 25 -29 48 36 c26 21 42 36 34 35 -8 -1
-41 -4 -73 -7z"/>
<path d="M410 4391 c0 -6 14 -17 30 -26 17 -9 30 -14 30 -12 0 2 -13 13 -30
25 -16 13 -30 18 -30 13z"/>
<path d="M8828 4333 c6 -2 18 -2 25 0 6 3 1 5 -13 5 -14 0 -19 -2 -12 -5z"/>
<path d="M10140 3577 c0 -10 108 -280 159 -397 l37 -85 -70 -35 c-38 -19 -85
-48 -105 -64 -20 -15 -71 -48 -113 -73 -43 -25 -78 -47 -78 -49 0 -4 100 -1
346 11 l101 5 54 -174 c51 -164 69 -200 69 -138 1 15 18 92 39 172 l38 145
190 0 c105 0 189 3 187 6 -2 3 -72 46 -156 94 -84 49 -154 90 -156 91 -2 1 29
84 67 185 39 100 70 184 68 185 -1 1 -47 -38 -102 -87 -93 -83 -143 -117 -99
-68 19 22 19 22 -6 14 -14 -4 -39 -21 -57 -37 l-31 -30 -33 23 c-17 13 -42 34
-55 47 -13 12 -29 22 -36 22 -13 0 -82 65 -199 185 -32 33 -59 56 -59 52z"/>
<path d="M1743 3555 c3 -11 29 -76 57 -145 28 -69 67 -163 86 -210 20 -47 38
-91 41 -97 3 -7 1 -13 -4 -13 -13 0 -151 -80 -193 -112 -19 -14 -63 -43 -98
-63 -35 -20 -62 -38 -60 -40 2 -2 100 0 218 5 118 5 218 5 222 2 6 -6 108
-325 108 -338 0 -3 5 -2 10 1 6 4 9 16 8 28 -2 12 15 91 36 175 l40 153 188
-3 c103 -2 188 -1 188 2 0 5 -67 46 -217 131 -51 29 -93 56 -93 60 0 6 67 185
131 349 l10 24 -23 -19 c-13 -11 -60 -53 -106 -94 -45 -41 -85 -71 -89 -68 -3
4 0 13 7 22 22 27 -21 6 -56 -27 l-31 -29 -34 23 c-19 13 -44 33 -57 46 -12
12 -27 22 -34 22 -10 0 -55 40 -207 184 -36 34 -52 44 -48 31z"/>
<path d="M3500 3527 c0 -5 14 -29 31 -54 23 -33 34 -42 42 -34 8 8 0 23 -31
54 -23 23 -42 38 -42 34z"/>
<path d="M3720 3427 c0 -3 32 -44 70 -92 39 -48 70 -91 70 -96 0 -5 -8 -9 -17
-9 -29 -1 57 -72 137 -114 39 -21 101 -60 136 -87 36 -27 84 -59 107 -70 23
-12 61 -37 84 -55 61 -50 188 -106 169 -75 -3 5 -47 32 -98 61 -115 65 -162
100 -151 111 9 9 119 -17 140 -33 21 -16 176 -89 180 -84 6 6 -48 46 -63 46
-8 0 -31 15 -51 34 -50 45 -199 141 -266 171 -47 22 -57 23 -86 12 l-32 -12
-102 106 c-56 59 -130 125 -164 148 -35 23 -63 40 -63 38z"/>
<path d="M960 3032 c0 -5 14 -21 31 -38 17 -16 53 -57 81 -92 28 -35 52 -61
55 -58 7 6 -25 65 -60 111 -45 59 -50 63 -42 35 6 -24 6 -24 -19 5 -14 17 -25
33 -26 38 0 10 -20 9 -20 -1z"/>
<path d="M2517 2969 c7 -7 15 -10 18 -7 3 3 -2 9 -12 12 -14 6 -15 5 -6 -5z"/>
<path d="M1165 2863 c23 -37 57 -74 63 -69 5 6 -61 95 -72 96 -4 0 0 -12 9
-27z"/>
<path d="M7995 2830 c-3 -6 1 -7 9 -4 18 7 21 14 7 14 -6 0 -13 -4 -16 -10z"/>
<path d="M1110 2794 c0 -6 18 -31 40 -55 21 -24 39 -38 40 -31 0 7 -18 32 -40
55 -22 23 -40 37 -40 31z"/>
<path d="M4790 2791 c0 -6 5 -11 11 -11 14 0 131 -72 125 -77 -2 -3 -32 3 -66
11 -83 21 -86 19 -15 -13 l60 -28 -33 -7 c-18 -4 -31 -13 -29 -19 9 -28 81
-51 308 -102 134 -30 297 -70 364 -90 251 -73 502 -100 839 -92 237 6 291 13
291 38 0 7 14 17 30 20 36 8 136 10 117 2 -6 -2 -9 -9 -6 -14 3 -6 36 -7 78
-3 40 4 76 3 79 -2 3 -5 83 -9 179 -9 134 0 179 4 198 15 23 14 17 15 -90 21
-72 4 -130 13 -155 23 l-40 17 25 15 c24 14 21 15 -37 10 -35 -2 -65 -1 -68 4
-3 4 -24 4 -47 -2 -24 -5 -110 -8 -193 -7 -163 3 -394 -12 -437 -29 -33 -14
-69 -14 -338 -3 -322 14 -614 65 -835 146 -73 26 -69 26 53 -1 134 -30 100 13
-69 88 -228 101 -299 125 -299 99z"/>
<path d="M7754 2762 c-46 -19 -116 -72 -95 -72 15 0 127 66 136 81 8 11 9 11
-41 -9z"/>
<path d="M5673 2561 c15 -5 58 -12 95 -16 37 -3 82 -8 100 -11 39 -6 43 12 5
20 -54 10 -229 16 -200 7z"/>
<path d="M1360 2485 c7 -9 15 -13 17 -11 7 7 -7 26 -19 26 -6 0 -6 -6 2 -15z"/>
<path d="M9127 2245 c-15 -39 -27 -76 -27 -83 0 -7 -7 -15 -15 -18 -17 -7 -21
-44 -4 -44 5 0 7 -5 3 -12 -5 -8 -11 -6 -19 5 -7 10 -17 17 -23 17 -6 0 -45
-35 -88 -77 -43 -43 -83 -77 -89 -75 -7 1 -20 -7 -30 -18 -26 -28 -51 -25 -60
7 -5 21 -1 31 17 45 27 20 14 23 -20 5 -53 -30 -184 72 -202 157 -6 28 -9 31
-41 28 -35 -2 -35 -2 -33 34 l3 37 -25 -24 c-23 -22 -27 -22 -37 -8 -10 13
-12 8 -12 -26 0 -27 4 -41 11 -38 6 2 31 -46 56 -109 113 -281 111 -270 41
-272 -35 -1 -38 -3 -36 -28 1 -23 -6 -32 -45 -55 l-47 -28 30 -5 30 -5 -35
-27 c-19 -14 -66 -45 -105 -68 l-70 -41 224 3 224 3 43 -135 c49 -153 50 -160
27 -160 -13 -1 -10 -5 10 -16 15 -8 27 -19 27 -25 0 -5 14 -2 31 7 31 16 30
29 -3 36 -14 2 -10 10 19 43 33 37 34 40 14 43 -25 4 -28 27 -5 36 11 4 14 13
10 31 -9 35 13 117 30 111 7 -3 15 2 18 11 4 8 12 13 20 10 7 -3 89 -10 182
-17 136 -9 189 -9 269 2 l100 13 -56 22 c-143 54 -209 86 -209 99 0 8 -4 14
-10 14 -5 0 -10 6 -10 14 0 20 -27 27 -40 11 -10 -12 -24 -8 -91 27 -73 38
-78 43 -73 67 9 43 46 134 66 163 10 14 16 33 13 40 -3 8 3 22 14 32 18 16 18
21 6 40 -22 32 -5 51 33 38 35 -12 59 5 48 34 -3 9 -1 35 5 58 6 22 13 64 14
91 3 48 3 49 -12 28 -8 -13 -19 -23 -24 -23 -4 0 -9 10 -11 23 -2 16 -11 2
-31 -48z m-117 -214 c0 -11 -112 -112 -118 -107 -5 6 99 116 110 116 4 0 8 -4
8 -9z"/>
<path d="M4434 2190 c-15 -44 -31 -80 -35 -80 -12 0 -17 -39 -5 -43 6 -2 7 -8
3 -13 -5 -5 -13 -1 -18 9 -6 9 -14 17 -19 17 -5 0 -44 -35 -87 -77 -43 -43
-83 -77 -89 -75 -5 1 -20 -7 -32 -19 -12 -11 -27 -17 -32 -14 -6 3 -10 0 -10
-7 -1 -7 -7 1 -14 17 -12 27 -12 32 8 47 23 20 15 24 -15 7 -29 -15 -119 30
-158 79 -28 37 -53 84 -55 107 -1 6 -16 9 -35 7 -27 -3 -33 -1 -28 11 9 24
-17 41 -33 22 -10 -12 -16 -13 -26 -4 -11 9 -14 8 -14 -4 0 -9 5 -19 11 -22 6
-5 4 -12 -8 -21 -17 -14 -17 -14 0 -12 14 2 28 -22 67 -114 28 -65 50 -122 50
-128 0 -5 7 -25 17 -44 17 -36 59 -56 85 -40 13 8 113 26 136 24 6 0 20 -1 30
-2 9 0 36 4 60 10 35 8 41 8 32 -3 -6 -7 -35 -16 -65 -20 -30 -3 -55 -10 -55
-14 0 -5 -11 -6 -25 -3 -26 4 -35 -12 -12 -22 6 -3 -4 -3 -23 -1 -137 16 -140
16 -134 0 4 -10 0 -15 -12 -15 -15 0 -16 -2 -5 -9 11 -7 11 -9 0 -13 -8 -3
-11 -8 -8 -12 7 -7 105 11 132 25 11 6 17 6 17 -1 0 -5 -27 -18 -60 -27 -33
-10 -58 -22 -56 -28 2 -5 8 -9 14 -8 6 2 23 -4 37 -11 26 -14 26 -14 6 -21
-14 -4 -31 1 -51 15 -36 26 -108 23 -160 -5 l-35 -20 28 -3 c15 -2 27 -8 27
-13 0 -5 9 -9 21 -9 11 0 18 4 15 9 -6 10 44 22 57 14 12 -7 -42 -53 -63 -53
-10 0 -22 -4 -25 -10 -3 -5 -25 -10 -48 -10 -39 0 -96 -26 -100 -46 -1 -4 22
-7 51 -5 30 1 52 -2 52 -8 0 -6 37 -10 90 -10 53 0 90 4 90 9 0 6 -11 8 -24 4
-14 -3 -33 -1 -43 6 -16 10 -14 11 10 7 18 -3 31 1 37 12 7 12 12 13 17 4 7
-10 60 -20 121 -22 25 -1 33 -41 7 -41 -8 0 -15 -4 -15 -10 0 -5 7 -7 15 -3 9
3 24 -2 35 -12 16 -15 26 -16 59 -7 27 6 41 6 44 -1 1 -5 16 2 32 17 23 21 37
27 62 24 22 -3 33 0 33 8 0 7 20 16 46 20 25 3 48 13 51 20 5 14 43 20 43 7
-1 -13 -43 -39 -75 -47 -24 -6 -27 -9 -13 -17 15 -8 67 -1 126 16 17 6 21 4
17 -7 -10 -25 43 -29 171 -13 64 8 119 17 121 19 2 2 -36 18 -84 36 -118 44
-163 68 -163 85 0 9 -6 12 -15 9 -9 -4 -15 0 -15 9 0 22 -18 31 -34 17 -19
-15 -162 55 -170 83 -3 11 4 37 15 58 16 33 17 39 4 39 -8 0 -15 5 -15 10 0 6
5 10 10 10 6 0 10 7 10 15 0 8 6 12 13 10 13 -5 47 47 47 73 0 8 7 23 16 33
12 14 13 22 4 39 -19 35 -7 50 31 40 42 -12 49 -6 49 39 0 21 4 51 9 67 5 16
12 49 16 74 l6 44 -26 -24 -25 -23 0 21 c0 44 -18 20 -46 -58z m-164 -252
c-75 -67 -83 -60 -14 13 35 36 60 55 63 47 2 -7 -20 -34 -49 -60z m-259 -104
c-18 -8 -43 -13 -55 -11 -14 2 -7 7 24 14 62 15 71 14 31 -3z m181 -66 c-6 -6
-15 -8 -19 -4 -4 4 -1 11 7 16 19 12 27 3 12 -12z m115 -4 c-3 -3 -12 -4 -19
-1 -8 3 -5 6 6 6 11 1 17 -2 13 -5z m-167 -14 c0 -13 -11 -13 -30 0 -12 8 -11
10 8 10 12 0 22 -4 22 -10z m102 -17 c-25 -26 -61 -41 -107 -46 -47 -6 -96 5
-77 17 7 4 21 5 31 1 12 -4 23 0 28 9 9 16 67 33 116 35 26 1 26 0 9 -16z
m-73 -87 c-9 -8 -99 -13 -99 -5 0 5 23 9 52 9 28 0 49 -2 47 -4z m-349 -115
c0 -5 -10 -11 -22 -14 -22 -6 -22 -6 -4 8 23 17 26 18 26 6z"/>
<path d="M1890 2135 c13 -14 33 -25 44 -25 16 0 14 4 -14 25 -19 14 -38 25
-44 25 -5 0 1 -11 14 -25z"/>
<path d="M1920 1991 l-25 -7 23 -13 c19 -10 23 -9 28 4 9 22 21 19 28 -8 3
-13 27 -39 53 -57 98 -70 167 -142 178 -184 7 -30 22 -49 54 -73 51 -39 62
-37 31 6 -12 17 -19 31 -16 31 3 0 35 -18 70 -39 56 -35 144 -81 153 -81 2 0
3 5 3 10 0 6 -6 10 -14 10 -8 0 -50 29 -94 65 -44 36 -84 65 -90 65 -5 0 -12
7 -15 14 -3 8 -22 18 -41 21 -31 6 -34 10 -26 29 12 32 -36 89 -76 88 -37 0
-117 40 -91 46 23 5 12 22 -14 22 -11 0 -18 4 -15 8 6 11 -48 52 -66 51 -7 -1
-24 -4 -38 -8z"/>
<path d="M2076 1945 c4 -8 10 -12 15 -9 11 6 2 24 -11 24 -5 0 -7 -7 -4 -15z"/>
<path d="M2020 1845 c19 -19 36 -35 39 -35 3 0 -10 16 -29 35 -19 19 -36 35
-39 35 -3 0 10 -16 29 -35z"/>
<path d="M6090 1813 c0 -4 5 -26 12 -48 6 -22 11 -44 9 -49 -3 -14 29 -89 48
-111 10 -11 25 -42 35 -70 10 -27 23 -61 31 -75 25 -49 44 -127 32 -139 -7 -7
-6 -16 6 -28 23 -26 6 -53 -18 -29 -22 22 -39 16 -43 -15 -3 -23 -55 -69 -80
-69 -6 0 -16 -9 -22 -20 -6 -11 -28 -32 -48 -45 -20 -14 -52 -37 -71 -50 l-34
-25 114 0 c63 0 159 -2 214 -4 67 -3 85 -2 55 3 l-45 8 63 1 c57 2 62 0 62
-19 0 -11 11 -53 25 -93 44 -129 65 -218 54 -238 -8 -15 -5 -20 18 -30 15 -7
36 -21 45 -32 17 -21 18 -20 12 14 -4 19 -11 40 -16 47 -5 7 -7 16 -4 22 3 5
2 21 -4 35 -8 23 -7 28 14 36 29 11 40 26 26 35 -13 8 -4 43 17 67 13 15 12
18 -5 27 -18 10 -19 14 -7 53 7 24 19 44 28 46 8 2 17 12 20 23 5 18 15 19
144 19 111 0 143 -3 161 -16 21 -15 25 -15 41 0 28 25 20 60 -15 67 -27 6 -28
7 -4 9 21 1 22 3 7 9 -10 4 -19 11 -19 16 -1 6 -13 16 -27 22 -14 7 -44 24
-66 38 -22 13 -46 24 -53 25 -8 0 -30 7 -49 17 -25 12 -33 21 -30 35 3 10 1
18 -5 18 -21 0 17 147 52 200 24 36 33 62 31 84 -2 13 2 17 13 13 9 -4 16 -2
16 3 0 6 9 10 20 10 12 0 22 9 26 24 3 15 16 27 32 31 27 7 27 7 5 17 -19 9
-22 17 -19 55 l3 44 -29 -36 c-17 -20 -32 -34 -35 -31 -3 2 -13 -3 -24 -12
-12 -11 -19 -29 -19 -54 0 -36 -1 -37 -29 -32 -23 5 -32 1 -49 -24 -12 -16
-34 -35 -49 -41 -16 -6 -33 -22 -38 -34 -7 -14 -20 -22 -38 -24 -16 -1 -40 -9
-53 -18 -18 -12 -29 -13 -44 -5 -11 6 -20 8 -20 4 0 -3 -7 -1 -15 6 -13 11
-14 10 -9 -5 5 -11 -2 -8 -19 9 -14 14 -30 26 -35 26 -5 0 -15 14 -22 30 -7
17 -40 53 -73 81 -34 28 -62 57 -63 65 -1 8 2 12 7 8 15 -9 10 10 -11 36 -17
22 -22 23 -39 13 -27 -17 -28 -17 -35 10 -6 21 -66 77 -66 60z m575 -303 c-15
-16 -32 -27 -37 -24 -5 4 1 13 14 22 13 9 27 22 31 30 5 7 11 11 15 8 3 -4 -7
-20 -23 -36z m-122 -56 l32 17 -30 -25 c-26 -22 -32 -24 -49 -12 -11 7 -22 19
-24 27 -3 9 3 7 17 -5 21 -19 23 -19 54 -2z"/>
<path d="M3815 1737 c-13 -10 -15 -16 -6 -21 12 -8 41 10 41 25 0 13 -13 11
-35 -4z"/>
<path d="M3830 1700 c-12 -8 -9 -10 13 -10 15 0 27 5 27 10 0 13 -20 13 -40 0z"/>
<path d="M2420 1540 c41 -36 58 -39 38 -7 -9 12 -20 22 -26 22 -6 0 -14 3 -18
8 -4 4 -12 7 -18 7 -6 -1 5 -14 24 -30z"/>
<path d="M2345 1530 c20 -22 31 -20 22 5 -4 8 -14 15 -23 15 -16 0 -16 -2 1
-20z"/>
<path d="M2527 1529 c7 -7 15 -10 18 -7 3 3 -2 9 -12 12 -14 6 -15 5 -6 -5z"/>
<path d="M2630 1475 c7 -8 17 -12 22 -9 6 4 5 10 -3 15 -22 14 -33 10 -19 -6z"/>
<path d="M4155 1409 c-16 -4 -38 -6 -50 -3 -11 3 -28 -1 -38 -8 -17 -12 -17
-15 1 -68 13 -38 24 -55 35 -54 58 3 80 6 69 11 -9 3 -7 12 8 31 13 16 17 29
11 35 -6 6 -7 23 -4 38 3 16 4 29 2 28 -2 0 -17 -5 -34 -10z m-1 -28 c3 -5 0
-11 -8 -14 -19 -8 -57 3 -50 14 7 12 51 12 58 0z"/>
<path d="M2790 1350 c8 -5 22 -10 30 -10 13 0 13 1 0 10 -8 5 -22 10 -30 10
-13 0 -13 -1 0 -10z"/>
<path d="M2625 1300 c-3 -5 3 -10 14 -10 12 0 21 5 21 10 0 6 -6 10 -14 10 -8
0 -18 -4 -21 -10z"/>
<path d="M2854 1295 c11 -8 25 -15 30 -15 6 0 2 7 -8 15 -11 8 -25 15 -30 15
-6 0 -2 -7 8 -15z"/>
<path d="M4143 1252 c-13 -2 -23 -7 -23 -12 0 -12 25 -19 40 -10 19 12 8 25
-17 22z"/>
<path d="M3440 989 c39 -31 60 -41 60 -29 0 5 -5 10 -12 10 -6 0 -8 3 -5 7 10
9 -25 32 -48 32 -18 1 -18 -1 5 -20z"/>
<path d="M3360 973 c0 -14 59 -42 65 -32 4 5 1 9 -5 9 -6 0 -18 7 -26 15 -16
16 -34 20 -34 8z"/>
<path d="M3770 783 c0 -13 29 -38 35 -31 3 3 -4 13 -15 23 -11 10 -20 13 -20
8z"/>
<path d="M4080 570 c0 -10 23 -30 36 -30 6 0 14 6 17 14 4 10 -4 15 -24 18
-16 3 -29 2 -29 -2z"/>
<path d="M4003 550 c27 -22 37 -25 37 -12 0 8 -43 32 -57 32 -3 0 6 -9 20 -20z"/>
<path d="M4500 521 c0 -15 24 -28 63 -34 42 -7 46 -3 16 14 -33 17 -79 29 -79
20z"/>
<path d="M4498 473 c7 -3 16 -2 19 1 4 3 -2 6 -13 5 -11 0 -14 -3 -6 -6z"/>
<path d="M4667 423 c19 -19 83 -37 83 -23 0 3 -17 12 -37 19 -21 8 -44 16 -52
19 -8 3 -5 -4 6 -15z"/>
<path d="M4768 423 c7 -3 16 -2 19 1 4 3 -2 6 -13 5 -11 0 -14 -3 -6 -6z"/>
<path d="M5082 260 c10 -6 55 -15 100 -21 46 -6 116 -17 156 -24 43 -8 82 -11
95 -6 17 7 9 10 -38 15 -102 12 -279 36 -305 42 -21 5 -22 4 -8 -6z"/>
<path d="M5035 240 c6 -10 64 -24 71 -17 3 2 -13 9 -36 15 -22 5 -38 6 -35 2z"/>
<path d="M6335 200 c-3 -5 1 -10 9 -10 8 0 18 5 21 10 3 6 -1 10 -9 10 -8 0
-18 -4 -21 -10z"/>
<path d="M6558 193 c6 -2 18 -2 25 0 6 3 1 5 -13 5 -14 0 -19 -2 -12 -5z"/>
<path d="M6394 165 c-18 -14 -17 -14 13 -15 25 0 31 4 27 15 -8 19 -15 19 -40
0z"/>
</g>
</svg>
