<svg id="圖層_1" data-name="圖層 1" xmlns="http://www.w3.org/2000/svg" viewBox="0 0 400 400"><defs><style>.cls-1{fill:none;stroke-width:14px;}.cls-1,.cls-2,.cls-4{stroke:#77be5b;stroke-miterlimit:10;}.cls-2,.cls-4{fill:#bbdcab;}.cls-2{stroke-width:0.83px;}.cls-3{fill:#77be5b;}.cls-4{stroke-width:1.23px;}</style></defs><title>Accept</title><rect class="cls-1" x="23.03" y="105.64" width="354.22" height="164"/><path class="cls-2" d="M121,209.38V182.07h6.83v-6.82h13.65v6.82h6.83v27.31h-6.83V195.73H127.78v13.65Zm6.83-20.48h13.65v-6.83H127.78Z"/><path class="cls-2" d="M161.91,209.38v-6.83h-6.83V182.07h6.83v-6.82h13.65v6.82H161.91v20.48h13.65v6.83Z"/><path class="cls-2" d="M189.22,209.38v-6.83h-6.83V182.07h6.83v-6.82h13.65v6.82H189.22v20.48h13.65v6.83Z"/><path class="cls-2" d="M209.7,209.38V175.25h20.47v6.82H216.52v6.83h13.65v6.83H216.52v6.82h13.65v6.83Z"/><path class="cls-2" d="M237,209.38V175.25h20.48v6.82h6.83v6.83h-6.83v6.83H243.83v13.65Zm20.48-20.48v-6.83H243.83v6.83Z"/><path class="cls-2" d="M291.61,175.25v6.82h-6.82v27.31H278V182.07h-6.83v-6.82Z"/><path class="cls-2" d="M298.44,209.38V175.25h20.48v6.82H305.26v6.83h13.66v6.83H305.26v6.82h13.66v6.83Z"/><path class="cls-2" d="M325.74,209.38V175.25h20.48v6.82h6.83v20.48h-6.83v6.83Zm20.48-6.83V182.07H332.57v20.48Z"/><path class="cls-3" d="M117.44,205.86v-27.3h6.83v-6.83h13.65v6.83h6.82v27.3h-6.82V192.21H124.27v13.65Zm6.83-20.47h13.65v-6.83H124.27Z"/><path class="cls-3" d="M158.4,205.86V199h-6.83V178.56h6.83v-6.83h13.65v6.83H158.4V199h13.65v6.82Z"/><path class="cls-3" d="M185.7,205.86V199h-6.82V178.56h6.82v-6.83h13.66v6.83H185.7V199h13.66v6.82Z"/><path class="cls-3" d="M206.18,205.86V171.73h20.48v6.83H213v6.83h13.65v6.82H213V199h13.65v6.82Z"/><path class="cls-3" d="M233.49,205.86V171.73H254v6.83h6.82v6.83H254v6.82H240.31v13.65ZM254,185.39v-6.83H240.31v6.83Z"/><path class="cls-3" d="M288.1,171.73v6.83h-6.83v27.3h-6.82v-27.3h-6.83v-6.83Z"/><path class="cls-3" d="M294.92,205.86V171.73H315.4v6.83H301.75v6.83H315.4v6.82H301.75V199H315.4v6.82Z"/><path class="cls-3" d="M322.23,205.86V171.73h20.48v6.83h6.82V199h-6.82v6.82ZM342.71,199V178.56H329.06V199Z"/><polygon class="cls-4" points="72.29 166.52 59.45 166.52 59.45 179.36 72.29 179.36 85.14 179.36 85.14 166.52 72.29 166.52"/><polygon class="cls-4" points="85.14 179.36 85.14 192.2 85.14 205.05 97.98 205.05 97.98 192.2 97.98 179.36 85.14 179.36"/><polygon class="cls-4" points="72.29 205.05 59.45 205.05 59.45 217.89 72.29 217.89 85.14 217.89 85.14 205.05 72.29 205.05"/><polygon class="cls-4" points="46.7 179.36 46.7 192.2 46.7 205.05 59.55 205.05 59.55 192.2 59.55 179.36 46.7 179.36"/><rect class="cls-3" x="56.61" y="163.68" width="12.84" height="12.84"/><rect class="cls-3" x="69.45" y="163.68" width="12.84" height="12.84"/><rect class="cls-3" x="82.29" y="176.52" width="12.84" height="12.84"/><rect class="cls-3" x="82.29" y="189.36" width="12.84" height="12.84"/><rect class="cls-3" x="69.45" y="202.2" width="12.84" height="12.84"/><rect class="cls-3" x="56.61" y="202.2" width="12.84" height="12.84"/><rect class="cls-3" x="43.86" y="189.36" width="12.84" height="12.84"/><rect class="cls-3" x="43.86" y="176.52" width="12.84" height="12.84"/></svg>