<svg xmlns="http://www.w3.org/2000/svg" width="53.755" height="45.043" viewBox="0 0 53.755 45.043"><defs><style>.a{fill:#e0e0e0;}</style></defs><g transform="translate(0 0)"><path class="a" d="M53.756,2.82a34.708,34.708,0,0,1-.793,4.118q-3.7,17.5-7.417,34.992a6.178,6.178,0,0,1-.658,1.943,2.17,2.17,0,0,1-2.566,1.091,5.051,5.051,0,0,1-1.9-.918c-3.739-2.77-7.479-5.52-11.2-8.306a.729.729,0,0,0-1.147.081c-1.834,1.825-3.707,3.613-5.548,5.432a3.241,3.241,0,0,1-2.493,1.072,1.3,1.3,0,0,1-1.357-1.01c-1.161-3.595-2.337-7.191-3.5-10.774-.4-1.22-.813-2.432-1.183-3.658a1.067,1.067,0,0,0-.8-.8c-3.654-1.122-7.3-2.27-10.947-3.411A5.7,5.7,0,0,1,.845,22.1a1.324,1.324,0,0,1-.221-2.359,6.657,6.657,0,0,1,2.146-1.2L17.695,12.77Q33.812,6.553,49.921.344c.086-.033.17-.07.256-.1C52.2-.511,53.731.545,53.756,2.82ZM20.043,38.894a.312.312,0,0,0,.187-.329c.245-2.621.5-5.242.715-7.864a2.2,2.2,0,0,1,.76-1.592q10.5-9.433,20.974-18.9c.441-.4.887-.793,1.32-1.2.178-.17.411-.365.274-.644s-.46-.282-.729-.249a3.472,3.472,0,0,0-1.443.608q-12.932,8.154-25.865,16.3a.793.793,0,0,0-.382,1.116c1.067,3.189,2.1,6.388,3.146,9.587q.519,1.583,1.038,3.175Z" transform="translate(-0.001 -0.002)"/></g></svg>