<svg xmlns="http://www.w3.org/2000/svg" width="62.069" height="59.507" viewBox="0 0 62.069 59.507">
  <g id="Back" transform="translate(20.5) rotate(30)" fill="none">
    <path d="M19.685,7.372a5,5,0,0,1,8.63,0l15.28,26.1A5,5,0,0,1,39.28,41H8.72a5,5,0,0,1-4.315-7.526Z" stroke="none"/>
    <path d="M 24.00006103515625 8.8974609375 C 23.73849105834961 8.8974609375 23.37645149230957 8.983310699462891 23.13705062866211 9.392280578613281 L 7.857471466064453 35.49484252929688 C 7.615570068359375 35.9080810546875 7.721500396728516 36.26814270019531 7.852962493896484 36.49742126464844 C 7.984420776367188 36.72671127319336 8.241641998291016 37.00002288818359 8.720481872558594 37.00002288818359 L 39.27964019775391 37.00002288818359 C 39.75848007202148 37.00002288818359 40.01570129394531 36.72671127319336 40.14715957641602 36.49742126464844 C 40.27862167358398 36.26814270019531 40.38455200195313 35.9080810546875 40.14265060424805 35.49484252929688 L 24.86308097839355 9.392292022705078 C 24.62367057800293 8.983310699462891 24.26162147521973 8.8974609375 24.00006103515625 8.8974609375 M 24.00006103515625 4.8974609375 C 25.67484283447266 4.8974609375 27.3496265411377 5.722160339355469 28.31513023376465 7.371562957763672 L 43.59471130371094 33.47412109375 C 45.54587936401367 36.8073616027832 43.14197158813477 41.00002288818359 39.27964019775391 41.00002288818359 L 8.720481872558594 41.00002288818359 C 4.858150482177734 41.00002288818359 2.454242706298828 36.8073616027832 4.405410766601563 33.47412109375 L 19.68499183654785 7.371562957763672 C 20.6504955291748 5.722160339355469 22.32527923583984 4.8974609375 24.00006103515625 4.8974609375 Z" stroke="none" fill="#fff"/>
  </g>
</svg>
