<svg id="圖層_1" data-name="圖層 1" xmlns="http://www.w3.org/2000/svg" viewBox="0 0 400 400"><defs><style>.cls-1{fill:none;stroke:#ebcc4e;stroke-width:14px;}.cls-1,.cls-2{stroke-miterlimit:10;}.cls-2,.cls-4{fill:#f5e5be;}.cls-2{stroke:#e9d993;}.cls-3{fill:#ebcc4e;}</style></defs><title>Failure</title><rect class="cls-1" x="23.03" y="105.64" width="354.22" height="164"/><path class="cls-2" d="M122.42,208.77v-41H147V176H130.62v8.2H147v8.21H130.62v16.4Z"/><path class="cls-2" d="M155.23,208.77V176h8.21v-8.2h16.4V176h8.21v32.81h-8.21v-16.4h-16.4v16.4Zm8.21-24.61h16.4V176h-16.4Z"/><path class="cls-2" d="M196.25,167.76h8.2v41h-8.2Z"/><path class="cls-2" d="M220.86,167.76v32.81h16.4v8.2H212.65v-41Z"/><path class="cls-2" d="M253.67,167.76v32.81h16.41V167.76h8.2v32.81h-8.2v8.2H253.67v-8.2h-8.2V167.76Z"/><path class="cls-2" d="M286.48,208.77v-41h24.61V176h8.21v8.2h-8.21v8.21h-16.4v16.4Zm24.61-24.61V176h-16.4v8.2Zm0,8.21v16.4h8.21v-16.4Z"/><path class="cls-2" d="M327.5,208.77v-41h24.61V176H335.7v8.2h16.41v8.21H335.7v8.2h16.41v8.2Z"/><path class="cls-3" d="M118.31,204.66v-41h24.61v8.2H126.51v8.2h16.41v8.2H126.51v16.41Z"/><path class="cls-3" d="M151.12,204.66V171.85h8.2v-8.2h16.41v8.2h8.2v32.81h-8.2V188.25H159.32v16.41Zm8.2-24.61h16.41v-8.2H159.32Z"/><path class="cls-3" d="M192.14,163.65h8.2v41h-8.2Z"/><path class="cls-3" d="M216.75,163.65v32.81h16.4v8.2H208.54v-41Z"/><path class="cls-3" d="M249.56,163.65v32.81H266V163.65h8.2v32.81H266v8.2H249.56v-8.2h-8.2V163.65Z"/><path class="cls-3" d="M282.37,204.66v-41H307v8.2h8.2v8.2H307v8.2h-16.4v16.41ZM307,180.05v-8.2h-16.4v8.2Zm0,8.2v16.41h8.2V188.25Z"/><path class="cls-3" d="M323.39,204.66v-41H348v8.2H331.59v8.2H348v8.2H331.59v8.21H348v8.2Z"/><rect class="cls-4" x="46.71" y="160.45" width="10.32" height="10.32"/><rect class="cls-4" x="57.03" y="170.77" width="10.32" height="10.32"/><rect class="cls-4" x="67.34" y="180.52" width="10.32" height="10.32"/><rect class="cls-4" x="57.18" y="190.68" width="10.32" height="10.32"/><rect class="cls-4" x="46.94" y="200.92" width="10.32" height="10.32"/><rect class="cls-4" x="77.66" y="170.21" width="10.32" height="10.32"/><rect class="cls-4" x="87.97" y="159.89" width="10.32" height="10.32"/><rect class="cls-4" x="77.66" y="190.84" width="10.32" height="10.32"/><rect class="cls-4" x="87.97" y="201.15" width="10.32" height="10.32"/><rect class="cls-3" x="44.47" y="158.21" width="10.32" height="10.32"/><rect class="cls-3" x="54.79" y="168.53" width="10.32" height="10.32"/><rect class="cls-3" x="65.1" y="178.28" width="10.32" height="10.32"/><rect class="cls-3" x="54.94" y="188.44" width="10.32" height="10.32"/><rect class="cls-3" x="44.7" y="198.68" width="10.32" height="10.32"/><rect class="cls-3" x="75.42" y="167.97" width="10.32" height="10.32"/><rect class="cls-3" x="85.73" y="157.65" width="10.32" height="10.32"/><rect class="cls-3" x="75.42" y="188.6" width="10.32" height="10.32"/><rect class="cls-3" x="85.73" y="198.91" width="10.32" height="10.32"/></svg>