<svg xmlns="http://www.w3.org/2000/svg" width="62.069" height="59.507" viewBox="0 0 62.069 59.507">
  <g id="Next" transform="translate(0 24) rotate(-30)" fill="none">
    <path d="M19.685,7.372a5,5,0,0,1,8.63,0l15.28,26.1A5,5,0,0,1,39.28,41H8.72a5,5,0,0,1-4.315-7.526Z" stroke="none"/>
    <path d="M 24.00000190734863 8.897480010986328 C 23.73843193054199 8.897480010986328 23.37639236450195 8.983329772949219 23.13699150085449 9.392299652099609 L 7.857460021972656 35.49481964111328 C 7.615562438964844 35.90805816650391 7.721492767333984 36.26811981201172 7.852951049804688 36.49740982055664 C 7.984413146972656 36.72668838500977 8.241630554199219 37 8.720470428466797 37 L 39.27953338623047 37 C 39.75837326049805 37 40.01559066772461 36.72668838500977 40.14705276489258 36.49739837646484 C 40.27851104736328 36.26811981201172 40.38444137573242 35.90805816650391 40.14253997802734 35.49481964111328 L 24.86302185058594 9.392307281494141 C 24.62361145019531 8.983329772949219 24.26156234741211 8.897480010986328 24.00000190734863 8.897480010986328 M 23.99999809265137 4.897480010986328 C 25.67478179931641 4.897480010986328 27.34956741333008 5.722179412841797 28.31507110595703 7.371578216552734 L 43.59460067749023 33.47409820556641 C 45.54577255249023 36.80735015869141 43.14185333251953 41 39.27953338623047 41 L 8.720470428466797 41 C 4.858142852783203 41 2.454231262207031 36.80735015869141 4.405403137207031 33.47409820556641 L 19.68493270874023 7.371578216552734 C 20.65043258666992 5.722179412841797 22.32521438598633 4.897480010986328 23.99999809265137 4.897480010986328 Z" stroke="none" fill="#fff"/>
  </g>
</svg>
