<svg xmlns="http://www.w3.org/2000/svg" viewBox="0 0 626.42 139.8"><defs><style>.cls-1{fill:#fff;}</style></defs><title>LOGO_white</title><g id="圖層_2" data-name="圖層 2"><g id="圖層_1-2" data-name="圖層 1"><path class="cls-1" d="M53.55,0H41.7A18.38,18.38,0,0,0,23.85,16.14L22.37,30.23h28Z"/><polygon class="cls-1" points="112.54 30.23 84.54 30.23 81.95 54.8 47.55 54.8 50.14 30.23 22.14 30.23 17.37 75.57 107.77 75.57 112.54 30.23"/><polygon class="cls-1" points="8.96 75.57 3.54 127.12 31.54 127.12 36.66 78.4 71.06 78.4 65.94 127.12 93.94 127.12 99.36 75.57 8.96 75.57"/><polygon class="cls-1" points="28.54 127.12 0.54 127.12 0 132.23 28 132.23 28.54 127.12"/><polygon class="cls-1" points="6 132.23 5.39 138 33.39 138 34 132.23 6 132.23"/><polygon class="cls-1" points="68.4 132.23 67.79 138 95.79 138 96.4 132.23 68.4 132.23"/><polygon class="cls-1" points="90.94 127.12 62.94 127.12 62.4 132.23 90.4 132.23 90.94 127.12"/><polygon class="cls-1" points="115.95 0 87.95 0 84.77 30.23 112.77 30.23 115.95 0"/><path class="cls-1" d="M162.35,75.57,162.1,78h-15c-18.6,0-32.77,9.2-35,30.4-.79,7.56.26,13.82,2.73,18.72h67.3l5.42-51.55Zm-2.63,25c-1.43,13.6-4.95,18.6-13.75,18.6-6.4,0-9.63-3.6-8.83-11.2.82-7.8,4.78-11.2,11.58-11.2h11.4Z"/><path class="cls-1" d="M196.3,72.4c3-28.6-10.59-36.2-32.19-36.2-17.6,0-28.67,4.4-36.55,16.6l16.68,12.6c3.83-6,7.44-8,15-8,11.8,0,13,3.6,11.84,14.8l-.35,3.37H196Z"/><polygon class="cls-1" points="159.4 132.23 158.79 138 183.99 138 184.6 132.23 159.4 132.23"/><path class="cls-1" d="M140.8,139.8c7.89,0,13.1-2.69,16.88-7.57h-36.3C126,137.21,132.77,139.8,140.8,139.8Z"/><path class="cls-1" d="M179.13,127.12h-67.3a22.28,22.28,0,0,0,3.55,5.11h36.3a25.84,25.84,0,0,0,2-3l-.32,3h25.2Z"/><path class="cls-1" d="M251.44,57.8c6.4,0,9.22,3.6,11,7.8l19.76-13c-4.66-10.8-14.07-16.4-28.27-16.4-23.78,0-39,13.67-43.37,39.37h25.64C238.17,64.05,242,57.8,251.44,57.8Z"/><path class="cls-1" d="M236.67,118.2c-12.4,0-12.46-10.8-10.95-25.2l1.09-10.4c.27-2.54.58-4.87,1-7H202.13q-.45,2.63-.75,5.43L200,94.6c-1.41,13.44.84,24.63,6.42,32.52h57.15a40.59,40.59,0,0,0,3.11-4.72l-16.88-12.6C246.32,115.8,242.67,118.2,236.67,118.2Z"/><path class="cls-1" d="M260.52,127.12H203.37a28.14,28.14,0,0,0,4.62,5.11h47.67A32.06,32.06,0,0,0,260.52,127.12Z"/><path class="cls-1" d="M261.66,132.23H214c5.6,4.87,13.18,7.57,22.61,7.57C247.17,139.8,255.29,137.57,261.66,132.23Z"/><path class="cls-1" d="M323.75,0h-2.87c-12.56,0-23.8,10.18-25.12,22.74L295,30.23h25.6Z"/><polygon class="cls-1" points="278.59 132.23 277.99 138 303.59 138 304.19 132.23 278.59 132.23"/><polygon class="cls-1" points="298.73 127.12 273.13 127.12 272.59 132.23 298.19 132.23 298.73 127.12"/><polygon class="cls-1" points="338.78 75.4 366.51 38 337.71 38 315.9 72.4 320.33 30.23 294.73 30.23 289.97 75.57 338.84 75.57 338.78 75.4"/><polygon class="cls-1" points="281.55 75.57 276.13 127.12 301.73 127.12 303.45 110.8 311.56 100.2 320.55 127.12 348.56 127.12 330.43 75.57 281.55 75.57"/><polygon class="cls-1" points="345.56 127.12 317.55 127.12 319.26 132.23 347.36 132.23 345.56 127.12"/><polygon class="cls-1" points="325.26 132.23 327.19 138 355.39 138 353.36 132.23 325.26 132.23"/><path class="cls-1" d="M413.06,23.6h24.42c11.26,0,21.34-9.13,22.53-20.39L460.34,0h-72.8l-3.17,30.23h28Z"/><path class="cls-1" d="M449,58h-39.8l2.92-27.77h-28l-4.76,45.34h59.95A26.52,26.52,0,0,0,449,58Z"/><path class="cls-1" d="M371,75.57l-5.42,51.55h28l4.78-45.52h16.2a26,26,0,0,0,16.39-6Z"/><polygon class="cls-1" points="390.53 127.12 362.53 127.12 361.99 132.23 389.99 132.23 390.53 127.12"/><polygon class="cls-1" points="367.99 132.23 367.39 138 395.39 138 395.99 132.23 367.99 132.23"/><path class="cls-1" d="M500.55,75.57,498.32,96.8c-1.39,13.2-5.41,21-14.41,21-8,0-9.81-5.6-8.17-21.2l2.21-21h-25.6l-2.63,25c-1.24,11.8.21,20.42,3.41,26.52h67.6l5.42-51.55Z"/><polygon class="cls-1" points="490.31 38 464.71 38 460.76 75.57 486.36 75.57 490.31 38"/><polygon class="cls-1" points="538.51 38 512.91 38 508.96 75.57 534.56 75.57 538.51 38"/><path class="cls-1" d="M479.4,139.8c9.43,0,13.93-2.86,17.63-7.57H459.75C464.77,137.63,471.83,139.8,479.4,139.8Z"/><path class="cls-1" d="M517.73,127.12h-67.6a23.17,23.17,0,0,0,3.62,5.11H491q.69-.87,1.35-1.83l-.19,1.83h25Z"/><polygon class="cls-1" points="498.19 132.23 497.58 138 522.59 138 523.19 132.23 498.19 132.23"/><polygon class="cls-1" points="560.93 127.12 535.33 127.12 534.79 132.23 560.39 132.23 560.93 127.12"/><polygon class="cls-1" points="540.79 132.23 540.18 138 565.78 138 566.39 132.23 540.79 132.23"/><path class="cls-1" d="M538.33,127.12h25.6l5-47.92c.14-1.27.3-2.47.49-3.63H543.74Z"/><path class="cls-1" d="M591.89,75.57c-.09,1.2-.21,2.48-.35,3.83l-5,47.72h25.59l5.42-51.55Z"/><path class="cls-1" d="M626,75.4c3.11-29.6-10.68-39.2-25.08-39.2-10.8,0-17.11,4.8-20.61,9.6l.82-7.8h-25l-4,37.57h25.7c1.73-11,5.79-17.37,13.93-17.37,7.3,0,9.44,4.67,8.51,17.37H626Z"/><polygon class="cls-1" points="609.13 127.12 583.52 127.12 582.99 132.23 608.59 132.23 609.13 127.12"/><polygon class="cls-1" points="588.99 132.23 588.38 138 613.98 138 614.59 132.23 588.99 132.23"/></g></g></svg>